<svg width="27" height="27" viewBox="0 0 27 27" fill="none" xmlns="http://www.w3.org/2000/svg">
  <path d="M7.25382 10.0906C7.60746 6.90786 10.2977 4.5 13.5 4.5V4.5C16.7023 4.5 19.3925 6.90786 19.7462 10.0906L20.0295 12.6401C20.0896 13.1814 20.1197 13.452 20.171 13.7166C20.2841 14.299 20.4747 14.8636 20.7377 15.3954C20.8572 15.637 20.9973 15.8705 21.2775 16.3375L22.1159 17.7349C22.785 18.85 23.1195 19.4075 22.881 19.8288C22.6425 20.25 21.9923 20.25 20.6919 20.25H6.30814C5.00771 20.25 4.35749 20.25 4.11899 19.8288C3.88049 19.4075 4.21502 18.85 4.88409 17.7349L5.72249 16.3375C6.00268 15.8705 6.14278 15.637 6.26229 15.3954C6.52529 14.8636 6.71587 14.299 6.82895 13.7166C6.88033 13.452 6.9104 13.1814 6.97055 12.6401L7.25382 10.0906Z" 
    stroke="white" 
    stroke-width="0.830357" 
    fill="none"/>
  <path d="M10.24 20.2066C10.4323 21.0438 10.856 21.7837 11.4454 22.3113C12.0349 22.839 12.757 23.125 13.5 23.125C14.243 23.125 14.9651 22.839 15.5546 22.3113C16.144 21.7837 16.5677 21.0438 16.76 20.2066" 
    stroke="white" 
    stroke-width="0.830357" 
    stroke-linecap="round" 
    fill="none"/>
</svg>
