<svg width="2252" height="2252" viewBox="0 0 2252 2252" fill="none" xmlns="http://www.w3.org/2000/svg">
<mask id="mask0_281_100" style="mask-type:alpha" maskUnits="userSpaceOnUse" x="0" y="0" width="2252" height="2252">
<rect width="2252" height="2252" fill="#D9D9D9"/>
</mask>
<g mask="url(#mask0_281_100)">
<g filter="url(#filter0_i_281_100)">
<path d="M972.5 744.5L962.5 661.5C820.098 752.078 756.978 813.405 716 968H268.5C289.195 989.058 296.103 1001.77 303 1025.5L771.5 1018C804.898 873.384 851.746 815.875 972.5 744.5Z" fill="url(#paint0_linear_281_100)"/>
</g>
<g filter="url(#filter1_i_281_100)">
<path d="M1325 738L1335 655C1477.4 745.578 1540.52 806.905 1581.5 961.5L2007.5 965C1991.41 984.16 1985.42 995.697 1985 1019L1526 1011.5C1492.6 866.884 1445.75 809.375 1325 738Z" fill="url(#paint1_linear_281_100)"/>
</g>
<g filter="url(#filter2_i_281_100)">
<path d="M302.5 1171.5C294.185 1196.17 283.901 1208.26 258 1227.5L694.5 1243.5C746.305 1393.86 810.132 1461.93 968.5 1562.5L959.5 1469C840.816 1382.45 792.153 1321.11 761.5 1171.5H302.5Z" fill="url(#paint2_linear_281_100)"/>
</g>
<g filter="url(#filter3_i_281_100)">
<path d="M1536 1165H1984.5C1987.49 1185.84 1993.37 1199.57 2013 1228.5L1603 1237C1551.19 1387.36 1487.37 1455.43 1329 1556L1338 1462.5C1456.68 1375.95 1505.35 1314.61 1536 1165Z" fill="url(#paint3_linear_281_100)"/>
</g>
</g>
<g filter="url(#filter4_i_281_100)">
<path d="M2100 1136C2100 1672.82 1669.3 2108 1138 2108C606.702 2108 176 1672.82 176 1136C176 599.179 606.702 164 1138 164C1669.3 164 2100 599.179 2100 1136ZM249.701 1136C249.701 1631.69 647.406 2033.53 1138 2033.53C1628.59 2033.53 2026.3 1631.69 2026.3 1136C2026.3 640.306 1628.59 238.467 1138 238.467C647.406 238.467 249.701 640.306 249.701 1136Z" fill="white"/>
</g>
<g filter="url(#filter5_i_281_100)">
<path d="M1061 313L1008.5 250.5L1020 751.5L1075.5 735.5L1061 313Z" fill="url(#paint4_linear_281_100)"/>
</g>
<g filter="url(#filter6_i_281_100)">
<path d="M1057.5 1899.5C1023.98 1922.45 1014.89 1936.4 1005 1962L1016.5 1461L1072 1477L1057.5 1899.5Z" fill="url(#paint5_linear_281_100)"/>
</g>
<g filter="url(#filter7_i_281_100)">
<path d="M1117 722.5V340H1171V722.5H1117Z" fill="url(#paint6_linear_281_100)"/>
</g>
<g filter="url(#filter8_i_281_100)">
<path d="M1113.5 1490L1110.5 1886C1133.85 1874.87 1146.21 1876.1 1167.5 1886V1490H1113.5Z" fill="url(#paint7_linear_281_100)"/>
</g>
<g filter="url(#filter9_i_281_100)">
<path d="M1218.5 731V307.5L1274 239.5V735.5L1218.5 731Z" fill="url(#paint8_linear_281_100)"/>
</g>
<g filter="url(#filter10_i_281_100)">
<path d="M1215 1481.5V1905C1241.39 1924.67 1253.44 1939.67 1270.5 1973V1477L1215 1481.5Z" fill="url(#paint9_linear_281_100)"/>
</g>
<g filter="url(#filter11_i_281_100)">
<path d="M310 1130C317.332 1105.67 317.114 1092.19 310 1069.5H775.5V1122.5L310 1130Z" fill="url(#paint10_linear_281_100)"/>
</g>
<path d="M310 1130C317.332 1105.67 317.114 1092.19 310 1069.5H775.5V1122.5L310 1130Z" stroke="black"/>
<g filter="url(#filter12_i_281_100)">
<path d="M1517 1125.5V1065H1982.5C1975.06 1085.34 1976.2 1097 1982.5 1118L1517 1125.5Z" fill="url(#paint11_linear_281_100)"/>
</g>
<path d="M1517 1125.5V1065H1982.5C1975.06 1085.34 1976.2 1097 1982.5 1118L1517 1125.5Z" stroke="black"/>
<g filter="url(#filter13_i_281_100)">
<path d="M818.5 769.5L684 639.5L657 672L789 804.5L818.5 769.5Z" fill="url(#paint12_linear_281_100)"/>
</g>
<g filter="url(#filter14_i_281_100)">
<path d="M1516 817.498L1642.5 690L1603.5 649L1477.5 773.498L1516 817.498Z" fill="url(#paint13_linear_281_100)"/>
</g>
<g filter="url(#filter15_i_281_100)">
<path d="M1470.5 1440.5L1607 1564.5L1643 1521L1510.5 1399L1470.5 1440.5Z" fill="url(#paint14_linear_281_100)"/>
</g>
<g filter="url(#filter16_i_281_100)">
<path d="M783 1402L659 1513L695 1558L822 1438.5L783 1402Z" fill="url(#paint15_linear_281_100)"/>
</g>
<circle cx="1137" cy="184" r="121.5" fill="url(#paint16_linear_281_100)" stroke="black" stroke-width="13"/>
<circle cx="2124" cy="1087" r="121.5" fill="url(#paint17_linear_281_100)" stroke="black" stroke-width="13"/>
<circle cx="1137" cy="2029" r="121.5" fill="url(#paint18_linear_281_100)" stroke="black" stroke-width="13"/>
<circle cx="650.5" cy="1566.5" r="76.5" fill="#D9D9D9"/>
<circle cx="1625.5" cy="1553.5" r="76.5" fill="#D9D9D9"/>
<circle cx="1633.5" cy="656.5" r="76.5" fill="#D9D9D9"/>
<circle cx="656.5" cy="639.5" r="76.5" fill="#D9D9D9"/>
<circle cx="168" cy="1100" r="121.5" fill="url(#paint19_linear_281_100)" stroke="black" stroke-width="13"/>
<mask id="mask1_281_100" style="mask-type:alpha" maskUnits="userSpaceOnUse" x="790" y="752" width="707" height="707">
<circle cx="1143.5" cy="1105.5" r="353.5" fill="#D9D9D9"/>
</mask>
<g mask="url(#mask1_281_100)">
<circle cx="1143.5" cy="1105.5" r="353.5" fill="url(#paint20_linear_281_100)"/>
<path d="M835.761 867.696L934.841 1088.59M835.761 867.696L1087.78 852.393M835.761 867.696C922.105 760.981 990.386 727.292 1149.63 716M835.761 867.696C760.335 991.612 744.754 1069.8 779.903 1229.64M934.841 1088.59L779.903 1229.64M934.841 1088.59L1043.9 1355.39M934.841 1088.59L1087.78 852.393M779.903 1229.64L864.354 1381.33M864.354 1381.33L1043.9 1355.39M864.354 1381.33L987.374 1459.18M1043.9 1355.39H1242.72M1043.9 1355.39L987.374 1459.18M1087.78 852.393L1149.63 716M1087.78 852.393H1205.48M1149.63 716L1205.48 852.393M1149.63 716C1290.33 716.596 1350.92 757.791 1449.53 852.393M1205.48 852.393L1373.72 1113.2M1205.48 852.393H1449.53M1373.72 1113.2L1449.53 852.393M1373.72 1113.2L1242.72 1355.39M1373.72 1113.2L1494.08 1253.59C1440.54 1360.13 1397.69 1406.56 1298.58 1465.83M1449.53 852.393C1528.1 988.975 1538.26 1077.59 1505.38 1253.59M1242.72 1355.39L1291.93 1459.18C1176.66 1504.71 1110.33 1509.12 987.374 1459.18" stroke="#C13A00" stroke-width="12.4651"/>
</g>
<defs>
<filter id="filter0_i_281_100" x="268.5" y="661.5" width="704" height="382" filterUnits="userSpaceOnUse" color-interpolation-filters="sRGB">
<feFlood flood-opacity="0" result="BackgroundImageFix"/>
<feBlend mode="normal" in="SourceGraphic" in2="BackgroundImageFix" result="shape"/>
<feColorMatrix in="SourceAlpha" type="matrix" values="0 0 0 0 0 0 0 0 0 0 0 0 0 0 0 0 0 0 127 0" result="hardAlpha"/>
<feOffset dy="25"/>
<feGaussianBlur stdDeviation="9"/>
<feComposite in2="hardAlpha" operator="arithmetic" k2="-1" k3="1"/>
<feColorMatrix type="matrix" values="0 0 0 0 0 0 0 0 0 0 0 0 0 0 0 0 0 0 0.25 0"/>
<feBlend mode="normal" in2="shape" result="effect1_innerShadow_281_100"/>
</filter>
<filter id="filter1_i_281_100" x="1325" y="655" width="682.5" height="382" filterUnits="userSpaceOnUse" color-interpolation-filters="sRGB">
<feFlood flood-opacity="0" result="BackgroundImageFix"/>
<feBlend mode="normal" in="SourceGraphic" in2="BackgroundImageFix" result="shape"/>
<feColorMatrix in="SourceAlpha" type="matrix" values="0 0 0 0 0 0 0 0 0 0 0 0 0 0 0 0 0 0 127 0" result="hardAlpha"/>
<feOffset dy="25"/>
<feGaussianBlur stdDeviation="9"/>
<feComposite in2="hardAlpha" operator="arithmetic" k2="-1" k3="1"/>
<feColorMatrix type="matrix" values="0 0 0 0 0 0 0 0 0 0 0 0 0 0 0 0 0 0 0.25 0"/>
<feBlend mode="normal" in2="shape" result="effect1_innerShadow_281_100"/>
</filter>
<filter id="filter2_i_281_100" x="258" y="1171.5" width="710.5" height="409" filterUnits="userSpaceOnUse" color-interpolation-filters="sRGB">
<feFlood flood-opacity="0" result="BackgroundImageFix"/>
<feBlend mode="normal" in="SourceGraphic" in2="BackgroundImageFix" result="shape"/>
<feColorMatrix in="SourceAlpha" type="matrix" values="0 0 0 0 0 0 0 0 0 0 0 0 0 0 0 0 0 0 127 0" result="hardAlpha"/>
<feOffset dy="25"/>
<feGaussianBlur stdDeviation="9"/>
<feComposite in2="hardAlpha" operator="arithmetic" k2="-1" k3="1"/>
<feColorMatrix type="matrix" values="0 0 0 0 0 0 0 0 0 0 0 0 0 0 0 0 0 0 0.25 0"/>
<feBlend mode="normal" in2="shape" result="effect1_innerShadow_281_100"/>
</filter>
<filter id="filter3_i_281_100" x="1329" y="1165" width="684" height="409" filterUnits="userSpaceOnUse" color-interpolation-filters="sRGB">
<feFlood flood-opacity="0" result="BackgroundImageFix"/>
<feBlend mode="normal" in="SourceGraphic" in2="BackgroundImageFix" result="shape"/>
<feColorMatrix in="SourceAlpha" type="matrix" values="0 0 0 0 0 0 0 0 0 0 0 0 0 0 0 0 0 0 127 0" result="hardAlpha"/>
<feOffset dy="25"/>
<feGaussianBlur stdDeviation="9"/>
<feComposite in2="hardAlpha" operator="arithmetic" k2="-1" k3="1"/>
<feColorMatrix type="matrix" values="0 0 0 0 0 0 0 0 0 0 0 0 0 0 0 0 0 0 0.25 0"/>
<feBlend mode="normal" in2="shape" result="effect1_innerShadow_281_100"/>
</filter>
<filter id="filter4_i_281_100" x="176" y="164" width="1924" height="1958" filterUnits="userSpaceOnUse" color-interpolation-filters="sRGB">
<feFlood flood-opacity="0" result="BackgroundImageFix"/>
<feBlend mode="normal" in="SourceGraphic" in2="BackgroundImageFix" result="shape"/>
<feColorMatrix in="SourceAlpha" type="matrix" values="0 0 0 0 0 0 0 0 0 0 0 0 0 0 0 0 0 0 127 0" result="hardAlpha"/>
<feOffset dy="14"/>
<feGaussianBlur stdDeviation="23"/>
<feComposite in2="hardAlpha" operator="arithmetic" k2="-1" k3="1"/>
<feColorMatrix type="matrix" values="0 0 0 0 0 0 0 0 0 0 0 0 0 0 0 0 0 0 0.25 0"/>
<feBlend mode="normal" in2="shape" result="effect1_innerShadow_281_100"/>
</filter>
<filter id="filter5_i_281_100" x="1008.5" y="250.5" width="67" height="519" filterUnits="userSpaceOnUse" color-interpolation-filters="sRGB">
<feFlood flood-opacity="0" result="BackgroundImageFix"/>
<feBlend mode="normal" in="SourceGraphic" in2="BackgroundImageFix" result="shape"/>
<feColorMatrix in="SourceAlpha" type="matrix" values="0 0 0 0 0 0 0 0 0 0 0 0 0 0 0 0 0 0 127 0" result="hardAlpha"/>
<feOffset dy="25"/>
<feGaussianBlur stdDeviation="9"/>
<feComposite in2="hardAlpha" operator="arithmetic" k2="-1" k3="1"/>
<feColorMatrix type="matrix" values="0 0 0 0 0 0 0 0 0 0 0 0 0 0 0 0 0 0 0.25 0"/>
<feBlend mode="normal" in2="shape" result="effect1_innerShadow_281_100"/>
</filter>
<filter id="filter6_i_281_100" x="1005" y="1461" width="67" height="519" filterUnits="userSpaceOnUse" color-interpolation-filters="sRGB">
<feFlood flood-opacity="0" result="BackgroundImageFix"/>
<feBlend mode="normal" in="SourceGraphic" in2="BackgroundImageFix" result="shape"/>
<feColorMatrix in="SourceAlpha" type="matrix" values="0 0 0 0 0 0 0 0 0 0 0 0 0 0 0 0 0 0 127 0" result="hardAlpha"/>
<feOffset dy="25"/>
<feGaussianBlur stdDeviation="9"/>
<feComposite in2="hardAlpha" operator="arithmetic" k2="-1" k3="1"/>
<feColorMatrix type="matrix" values="0 0 0 0 0 0 0 0 0 0 0 0 0 0 0 0 0 0 0.25 0"/>
<feBlend mode="normal" in2="shape" result="effect1_innerShadow_281_100"/>
</filter>
<filter id="filter7_i_281_100" x="1117" y="340" width="54" height="400.5" filterUnits="userSpaceOnUse" color-interpolation-filters="sRGB">
<feFlood flood-opacity="0" result="BackgroundImageFix"/>
<feBlend mode="normal" in="SourceGraphic" in2="BackgroundImageFix" result="shape"/>
<feColorMatrix in="SourceAlpha" type="matrix" values="0 0 0 0 0 0 0 0 0 0 0 0 0 0 0 0 0 0 127 0" result="hardAlpha"/>
<feOffset dy="25"/>
<feGaussianBlur stdDeviation="9"/>
<feComposite in2="hardAlpha" operator="arithmetic" k2="-1" k3="1"/>
<feColorMatrix type="matrix" values="0 0 0 0 0 0 0 0 0 0 0 0 0 0 0 0 0 0 0.25 0"/>
<feBlend mode="normal" in2="shape" result="effect1_innerShadow_281_100"/>
</filter>
<filter id="filter8_i_281_100" x="1110.5" y="1490" width="57" height="414" filterUnits="userSpaceOnUse" color-interpolation-filters="sRGB">
<feFlood flood-opacity="0" result="BackgroundImageFix"/>
<feBlend mode="normal" in="SourceGraphic" in2="BackgroundImageFix" result="shape"/>
<feColorMatrix in="SourceAlpha" type="matrix" values="0 0 0 0 0 0 0 0 0 0 0 0 0 0 0 0 0 0 127 0" result="hardAlpha"/>
<feOffset dy="25"/>
<feGaussianBlur stdDeviation="9"/>
<feComposite in2="hardAlpha" operator="arithmetic" k2="-1" k3="1"/>
<feColorMatrix type="matrix" values="0 0 0 0 0 0 0 0 0 0 0 0 0 0 0 0 0 0 0.25 0"/>
<feBlend mode="normal" in2="shape" result="effect1_innerShadow_281_100"/>
</filter>
<filter id="filter9_i_281_100" x="1218.5" y="239.5" width="55.5" height="514" filterUnits="userSpaceOnUse" color-interpolation-filters="sRGB">
<feFlood flood-opacity="0" result="BackgroundImageFix"/>
<feBlend mode="normal" in="SourceGraphic" in2="BackgroundImageFix" result="shape"/>
<feColorMatrix in="SourceAlpha" type="matrix" values="0 0 0 0 0 0 0 0 0 0 0 0 0 0 0 0 0 0 127 0" result="hardAlpha"/>
<feOffset dy="25"/>
<feGaussianBlur stdDeviation="9"/>
<feComposite in2="hardAlpha" operator="arithmetic" k2="-1" k3="1"/>
<feColorMatrix type="matrix" values="0 0 0 0 0 0 0 0 0 0 0 0 0 0 0 0 0 0 0.25 0"/>
<feBlend mode="normal" in2="shape" result="effect1_innerShadow_281_100"/>
</filter>
<filter id="filter10_i_281_100" x="1215" y="1477" width="55.5" height="514" filterUnits="userSpaceOnUse" color-interpolation-filters="sRGB">
<feFlood flood-opacity="0" result="BackgroundImageFix"/>
<feBlend mode="normal" in="SourceGraphic" in2="BackgroundImageFix" result="shape"/>
<feColorMatrix in="SourceAlpha" type="matrix" values="0 0 0 0 0 0 0 0 0 0 0 0 0 0 0 0 0 0 127 0" result="hardAlpha"/>
<feOffset dy="25"/>
<feGaussianBlur stdDeviation="9"/>
<feComposite in2="hardAlpha" operator="arithmetic" k2="-1" k3="1"/>
<feColorMatrix type="matrix" values="0 0 0 0 0 0 0 0 0 0 0 0 0 0 0 0 0 0 0.25 0"/>
<feBlend mode="normal" in2="shape" result="effect1_innerShadow_281_100"/>
</filter>
<filter id="filter11_i_281_100" x="309.319" y="1069" width="466.681" height="79.5107" filterUnits="userSpaceOnUse" color-interpolation-filters="sRGB">
<feFlood flood-opacity="0" result="BackgroundImageFix"/>
<feBlend mode="normal" in="SourceGraphic" in2="BackgroundImageFix" result="shape"/>
<feColorMatrix in="SourceAlpha" type="matrix" values="0 0 0 0 0 0 0 0 0 0 0 0 0 0 0 0 0 0 127 0" result="hardAlpha"/>
<feOffset dy="25"/>
<feGaussianBlur stdDeviation="9"/>
<feComposite in2="hardAlpha" operator="arithmetic" k2="-1" k3="1"/>
<feColorMatrix type="matrix" values="0 0 0 0 0 0 0 0 0 0 0 0 0 0 0 0 0 0 0.25 0"/>
<feBlend mode="normal" in2="shape" result="effect1_innerShadow_281_100"/>
</filter>
<filter id="filter12_i_281_100" x="1516.5" y="1064.5" width="466.715" height="79.5078" filterUnits="userSpaceOnUse" color-interpolation-filters="sRGB">
<feFlood flood-opacity="0" result="BackgroundImageFix"/>
<feBlend mode="normal" in="SourceGraphic" in2="BackgroundImageFix" result="shape"/>
<feColorMatrix in="SourceAlpha" type="matrix" values="0 0 0 0 0 0 0 0 0 0 0 0 0 0 0 0 0 0 127 0" result="hardAlpha"/>
<feOffset dy="25"/>
<feGaussianBlur stdDeviation="9"/>
<feComposite in2="hardAlpha" operator="arithmetic" k2="-1" k3="1"/>
<feColorMatrix type="matrix" values="0 0 0 0 0 0 0 0 0 0 0 0 0 0 0 0 0 0 0.25 0"/>
<feBlend mode="normal" in2="shape" result="effect1_innerShadow_281_100"/>
</filter>
<filter id="filter13_i_281_100" x="657" y="639.5" width="161.5" height="183" filterUnits="userSpaceOnUse" color-interpolation-filters="sRGB">
<feFlood flood-opacity="0" result="BackgroundImageFix"/>
<feBlend mode="normal" in="SourceGraphic" in2="BackgroundImageFix" result="shape"/>
<feColorMatrix in="SourceAlpha" type="matrix" values="0 0 0 0 0 0 0 0 0 0 0 0 0 0 0 0 0 0 127 0" result="hardAlpha"/>
<feOffset dy="25"/>
<feGaussianBlur stdDeviation="9"/>
<feComposite in2="hardAlpha" operator="arithmetic" k2="-1" k3="1"/>
<feColorMatrix type="matrix" values="0 0 0 0 0 0 0 0 0 0 0 0 0 0 0 0 0 0 0.25 0"/>
<feBlend mode="normal" in2="shape" result="effect1_innerShadow_281_100"/>
</filter>
<filter id="filter14_i_281_100" x="1477.5" y="649" width="165" height="186.498" filterUnits="userSpaceOnUse" color-interpolation-filters="sRGB">
<feFlood flood-opacity="0" result="BackgroundImageFix"/>
<feBlend mode="normal" in="SourceGraphic" in2="BackgroundImageFix" result="shape"/>
<feColorMatrix in="SourceAlpha" type="matrix" values="0 0 0 0 0 0 0 0 0 0 0 0 0 0 0 0 0 0 127 0" result="hardAlpha"/>
<feOffset dy="25"/>
<feGaussianBlur stdDeviation="9"/>
<feComposite in2="hardAlpha" operator="arithmetic" k2="-1" k3="1"/>
<feColorMatrix type="matrix" values="0 0 0 0 0 0 0 0 0 0 0 0 0 0 0 0 0 0 0.25 0"/>
<feBlend mode="normal" in2="shape" result="effect1_innerShadow_281_100"/>
</filter>
<filter id="filter15_i_281_100" x="1470.5" y="1399" width="172.5" height="183.499" filterUnits="userSpaceOnUse" color-interpolation-filters="sRGB">
<feFlood flood-opacity="0" result="BackgroundImageFix"/>
<feBlend mode="normal" in="SourceGraphic" in2="BackgroundImageFix" result="shape"/>
<feColorMatrix in="SourceAlpha" type="matrix" values="0 0 0 0 0 0 0 0 0 0 0 0 0 0 0 0 0 0 127 0" result="hardAlpha"/>
<feOffset dy="25"/>
<feGaussianBlur stdDeviation="9"/>
<feComposite in2="hardAlpha" operator="arithmetic" k2="-1" k3="1"/>
<feColorMatrix type="matrix" values="0 0 0 0 0 0 0 0 0 0 0 0 0 0 0 0 0 0 0.25 0"/>
<feBlend mode="normal" in2="shape" result="effect1_innerShadow_281_100"/>
</filter>
<filter id="filter16_i_281_100" x="659" y="1402" width="163" height="174.005" filterUnits="userSpaceOnUse" color-interpolation-filters="sRGB">
<feFlood flood-opacity="0" result="BackgroundImageFix"/>
<feBlend mode="normal" in="SourceGraphic" in2="BackgroundImageFix" result="shape"/>
<feColorMatrix in="SourceAlpha" type="matrix" values="0 0 0 0 0 0 0 0 0 0 0 0 0 0 0 0 0 0 127 0" result="hardAlpha"/>
<feOffset dy="25"/>
<feGaussianBlur stdDeviation="9"/>
<feComposite in2="hardAlpha" operator="arithmetic" k2="-1" k3="1"/>
<feColorMatrix type="matrix" values="0 0 0 0 0 0 0 0 0 0 0 0 0 0 0 0 0 0 0.25 0"/>
<feBlend mode="normal" in2="shape" result="effect1_innerShadow_281_100"/>
</filter>
<linearGradient id="paint0_linear_281_100" x1="620.5" y1="661.5" x2="620.5" y2="1025.5" gradientUnits="userSpaceOnUse">
<stop stop-color="white"/>
<stop offset="1" stop-color="white"/>
</linearGradient>
<linearGradient id="paint1_linear_281_100" x1="1666.25" y1="655" x2="1666.25" y2="1019" gradientUnits="userSpaceOnUse">
<stop stop-color="white"/>
<stop offset="1" stop-color="white"/>
</linearGradient>
<linearGradient id="paint2_linear_281_100" x1="613.25" y1="1171.5" x2="613.25" y2="1562.5" gradientUnits="userSpaceOnUse">
<stop stop-color="white"/>
<stop offset="1" stop-color="white"/>
</linearGradient>
<linearGradient id="paint3_linear_281_100" x1="1671" y1="1165" x2="1671" y2="1556" gradientUnits="userSpaceOnUse">
<stop stop-color="white"/>
<stop offset="1" stop-color="white"/>
</linearGradient>
<linearGradient id="paint4_linear_281_100" x1="1042" y1="250.5" x2="1042" y2="751.5" gradientUnits="userSpaceOnUse">
<stop stop-color="white"/>
<stop offset="1" stop-color="white"/>
</linearGradient>
<linearGradient id="paint5_linear_281_100" x1="1038.5" y1="1962" x2="1038.5" y2="1461" gradientUnits="userSpaceOnUse">
<stop stop-color="white"/>
<stop offset="1" stop-color="white"/>
</linearGradient>
<linearGradient id="paint6_linear_281_100" x1="1144" y1="340" x2="1144" y2="722.5" gradientUnits="userSpaceOnUse">
<stop stop-color="white"/>
<stop offset="1" stop-color="white"/>
</linearGradient>
<linearGradient id="paint7_linear_281_100" x1="1139" y1="1886" x2="1139" y2="1490" gradientUnits="userSpaceOnUse">
<stop stop-color="white"/>
<stop offset="1" stop-color="white"/>
</linearGradient>
<linearGradient id="paint8_linear_281_100" x1="1246.25" y1="239.5" x2="1246.25" y2="735.5" gradientUnits="userSpaceOnUse">
<stop stop-color="white"/>
<stop offset="1" stop-color="white"/>
</linearGradient>
<linearGradient id="paint9_linear_281_100" x1="1242.75" y1="1973" x2="1242.75" y2="1477" gradientUnits="userSpaceOnUse">
<stop stop-color="white"/>
<stop offset="1" stop-color="white"/>
</linearGradient>
<linearGradient id="paint10_linear_281_100" x1="542.75" y1="1069.5" x2="542.75" y2="1130" gradientUnits="userSpaceOnUse">
<stop stop-color="white"/>
<stop offset="1" stop-color="white"/>
</linearGradient>
<linearGradient id="paint11_linear_281_100" x1="1749.75" y1="1065" x2="1749.75" y2="1125.5" gradientUnits="userSpaceOnUse">
<stop stop-color="white"/>
<stop offset="1" stop-color="white"/>
</linearGradient>
<linearGradient id="paint12_linear_281_100" x1="737.75" y1="639.5" x2="737.75" y2="804.5" gradientUnits="userSpaceOnUse">
<stop stop-color="white"/>
<stop offset="1" stop-color="white"/>
</linearGradient>
<linearGradient id="paint13_linear_281_100" x1="1637.5" y1="740.885" x2="1482.2" y2="725.632" gradientUnits="userSpaceOnUse">
<stop stop-color="white"/>
<stop offset="1" stop-color="white"/>
</linearGradient>
<linearGradient id="paint14_linear_281_100" x1="1547.44" y1="1557.25" x2="1565.88" y2="1405.74" gradientUnits="userSpaceOnUse">
<stop stop-color="white"/>
<stop offset="1" stop-color="white"/>
</linearGradient>
<linearGradient id="paint15_linear_281_100" x1="670.291" y1="1464.12" x2="808.693" y2="1496.1" gradientUnits="userSpaceOnUse">
<stop stop-color="white"/>
<stop offset="1" stop-color="white"/>
</linearGradient>
<linearGradient id="paint16_linear_281_100" x1="1137" y1="56" x2="1137" y2="312" gradientUnits="userSpaceOnUse">
<stop stop-color="#FC4B00"/>
<stop offset="1" stop-color="#FFAA86"/>
</linearGradient>
<linearGradient id="paint17_linear_281_100" x1="2124" y1="959" x2="2124" y2="1215" gradientUnits="userSpaceOnUse">
<stop stop-color="#FC4B00"/>
<stop offset="1" stop-color="#FFAA86"/>
</linearGradient>
<linearGradient id="paint18_linear_281_100" x1="1137" y1="1901" x2="1137" y2="2157" gradientUnits="userSpaceOnUse">
<stop stop-color="#FC4B00"/>
<stop offset="1" stop-color="#FFAA86"/>
</linearGradient>
<linearGradient id="paint19_linear_281_100" x1="168" y1="972" x2="168" y2="1228" gradientUnits="userSpaceOnUse">
<stop stop-color="#FC4B00"/>
<stop offset="1" stop-color="#FFAA86"/>
</linearGradient>
<linearGradient id="paint20_linear_281_100" x1="1143.5" y1="752" x2="1143.5" y2="1459" gradientUnits="userSpaceOnUse">
<stop stop-color="#FC4B00"/>
<stop offset="1" stop-color="#FFAF8C"/>
</linearGradient>
</defs>
</svg>
