<?xml version="1.0" standalone="no"?>
<!DOCTYPE svg PUBLIC "-//W3C//DTD SVG 20010904//EN"
 "http://www.w3.org/TR/2001/REC-SVG-20010904/DTD/svg10.dtd">
<svg version="1.0" xmlns="http://www.w3.org/2000/svg"
 width="872.000000pt" height="895.000000pt" viewBox="0 0 872.000000 895.000000"
 preserveAspectRatio="xMidYMid meet">

<g transform="translate(0.000000,895.000000) scale(0.100000,-0.100000)"
fill="#000000" stroke="none">
<path d="M4120 8940 c-666 -37 -1340 -235 -1910 -563 -348 -200 -633 -419
-921 -706 -690 -690 -1117 -1556 -1243 -2524 -41 -310 -46 -929 -11 -1246 88
-801 377 -1530 857 -2169 55 -73 110 -139 121 -147 12 -8 18 -15 13 -15 -5 0
-1 -9 9 -20 10 -11 24 -20 32 -20 8 0 11 -4 8 -10 -3 -5 10 -26 28 -47 28 -30
38 -35 49 -25 11 9 17 9 26 0 9 -9 12 -9 12 1 0 7 5 9 10 6 6 -4 19 -1 28 7
15 11 15 11 5 -2 -6 -9 -17 -28 -22 -43 -10 -26 -9 -27 16 -21 20 6 24 4 18
-7 -5 -8 -5 -11 0 -7 4 4 15 2 24 -4 12 -10 12 -8 -2 8 -9 11 -17 26 -17 34 0
10 -3 10 -17 -1 -15 -13 -15 -12 -3 6 13 22 50 31 50 14 0 -6 -4 -8 -9 -4 -5
3 -3 -8 5 -25 16 -31 28 -37 39 -20 4 6 10 8 15 5 4 -3 13 9 19 25 6 18 6 28
1 25 -6 -4 -10 1 -10 9 0 10 7 13 20 11 12 -2 18 0 15 6 -4 5 -10 7 -15 4 -5
-3 -12 0 -16 7 -4 7 -4 10 1 6 4 -4 14 0 21 10 9 13 9 19 1 24 -9 6 -9 8 0 8
18 0 27 -21 13 -30 -15 -10 -3 -33 14 -27 9 4 8 -4 -2 -28 -9 -19 -19 -32 -22
-30 -4 3 -5 -7 -2 -20 2 -14 8 -25 12 -25 5 0 6 9 3 20 -3 11 0 20 6 20 6 0
11 -7 11 -15 0 -8 7 -15 16 -15 14 0 14 1 0 16 -18 17 -21 34 -6 34 5 0 7 6 4
14 -3 8 -1 17 4 20 5 3 12 -4 16 -17 3 -12 1 -24 -4 -25 -15 -5 -12 -22 4 -22
10 0 13 11 12 34 -1 26 2 32 11 24 7 -5 16 -7 22 -4 17 11 20 -22 3 -36 -15
-12 -16 -11 -3 5 7 9 10 17 5 17 -13 0 -45 -60 -38 -71 3 -5 12 -9 20 -9 8 0
12 -4 9 -10 -3 -5 -3 -10 2 -10 12 1 45 50 33 50 -5 0 -10 -5 -10 -10 0 -7 -8
-7 -22 1 l-21 11 24 14 c40 22 52 18 45 -17 -5 -25 -3 -30 9 -25 8 3 15 1 15
-4 0 -6 -6 -10 -12 -10 -8 0 -5 -7 6 -15 11 -8 25 -15 30 -14 6 0 5 3 -1 6
-18 7 -16 44 3 71 16 23 6 30 -14 10 -9 -9 -12 -9 -12 0 0 7 5 12 11 12 5 0 8
4 5 9 -3 4 -17 7 -31 6 -14 -2 -23 0 -20 5 3 4 -2 11 -11 14 -10 4 -14 13 -10
24 5 15 5 15 -7 1 -11 -15 -14 -15 -27 -1 -13 14 -12 15 3 9 9 -3 17 -2 17 4
0 6 6 9 13 7 6 -3 12 -10 12 -16 0 -7 2 -11 5 -10 3 2 20 -7 38 -20 29 -21 33
-22 48 -8 9 9 21 13 27 9 7 -4 4 -9 -8 -13 -17 -6 -17 -7 4 -13 17 -4 22 -11
17 -23 -5 -14 -4 -15 8 -5 8 7 20 10 25 7 5 -4 13 -1 17 5 5 8 3 9 -6 4 -9 -5
-11 -4 -6 4 6 9 11 9 24 -1 13 -11 15 -10 9 4 -3 10 -1 20 5 24 7 4 8 3 4 -4
-10 -16 16 -15 33 1 11 9 13 9 7 0 -4 -8 -2 -13 6 -13 7 0 1 -8 -14 -18 -24
-16 -25 -19 -11 -37 15 -20 15 -20 10 3 -4 18 -3 21 8 12 10 -8 15 -5 23 17 6
15 11 21 11 12 1 -9 8 -22 16 -29 12 -10 15 -10 15 3 0 8 -6 17 -12 20 -22 7
-2 18 36 20 36 2 52 17 19 17 -15 0 -16 2 -3 10 13 8 12 10 -2 10 -17 0 -17 1
-1 20 19 22 33 26 33 9 0 -5 -6 -7 -12 -3 -10 6 -10 5 -1 -8 7 -8 10 -18 6
-21 -3 -4 -1 -7 6 -7 9 0 9 -5 1 -20 -6 -11 -14 -19 -18 -17 -4 1 -7 -2 -7 -8
0 -5 3 -9 7 -7 5 1 8 -7 8 -18 0 -11 -5 -20 -12 -20 -6 0 -8 -3 -5 -7 4 -3 0
-15 -10 -25 -10 -12 -12 -18 -4 -18 7 0 9 -5 5 -12 -4 -7 -3 -8 5 -4 6 4 9 12
6 17 -4 5 3 22 14 37 13 18 17 33 11 42 -13 21 -1 33 18 18 14 -10 15 -10 4 2
-19 22 -14 32 10 24 13 -4 28 -7 35 -7 8 0 8 -5 0 -18 -6 -10 -16 -15 -22 -11
-5 3 -4 -2 3 -11 8 -9 11 -21 7 -27 -3 -5 2 -10 12 -11 13 0 14 -2 4 -6 -8 -3
-20 2 -28 13 -10 14 -13 14 -13 3 0 -26 21 -39 43 -28 12 7 23 7 29 1 6 -6 0
-12 -16 -16 -14 -3 -26 -10 -26 -15 0 -5 14 -3 30 5 36 19 37 21 5 46 -14 11
-24 27 -24 36 1 15 2 15 6 0 5 -19 6 -20 43 -22 14 0 29 -5 33 -11 5 -6 7 -4
4 5 -2 8 -13 16 -25 18 -24 4 -48 29 -38 39 4 4 11 1 16 -7 6 -9 10 -10 10 -3
0 7 -8 17 -18 22 -12 8 -13 10 -3 11 8 0 27 -15 42 -32 16 -18 28 -28 29 -22
0 7 -8 15 -17 20 -14 6 -10 9 17 14 19 3 40 3 46 -2 7 -5 10 0 9 14 -1 12 -7
24 -13 26 -7 2 -12 13 -12 25 0 21 1 21 13 -2 10 -21 36 -28 30 -9 -2 4 5 4
14 1 11 -4 13 -8 5 -11 -7 -2 -9 -9 -6 -14 4 -7 2 -8 -4 -4 -8 5 -11 -1 -10
-18 2 -24 4 -25 25 -11 25 17 47 20 38 6 -10 -17 15 -23 31 -7 9 9 20 14 25
11 12 -8 12 -35 -1 -35 -5 0 -6 7 -3 17 4 11 3 14 -5 9 -19 -12 -14 -30 16
-59 32 -30 52 -35 52 -11 0 9 -5 12 -12 8 -7 -4 -8 -3 -4 4 4 7 3 12 -3 12 -5
0 -11 -5 -13 -11 -2 -7 -8 -5 -17 4 -11 14 -9 15 16 13 15 -2 34 -4 42 -5 7 0
11 -7 8 -15 -3 -8 1 -22 8 -33 8 -10 15 -13 15 -6 0 6 -4 14 -10 18 -5 3 -7
12 -4 19 3 8 1 17 -5 21 -16 9 -13 22 4 22 8 0 15 -4 15 -9 0 -5 4 -7 9 -4 5
3 14 -1 21 -10 7 -8 19 -13 25 -10 7 2 18 -4 25 -15 10 -13 17 -15 27 -7 18
14 16 29 -2 22 -11 -5 -13 -2 -9 10 3 9 11 13 17 9 6 -3 7 -1 3 6 -4 6 -11 9
-16 6 -4 -3 -15 7 -25 21 -10 15 -22 23 -31 20 -8 -3 -14 1 -14 9 0 16 -35 29
-51 19 -8 -4 -9 -3 -5 4 4 6 -2 20 -14 32 -25 25 -48 27 -29 3 13 -16 12 -17
-3 -5 -10 8 -14 20 -11 30 6 15 5 15 -10 3 -15 -12 -17 -12 -12 1 4 10 -26 41
-92 95 -292 239 -559 543 -766 873 -97 153 -260 482 -321 646 -88 240 -157
513 -191 769 -25 182 -17 165 -78 165 -116 1 -218 44 -313 132 -153 144 -193
362 -99 553 81 166 239 265 424 265 l78 0 26 128 c241 1161 1031 2128 2117
2590 251 106 620 210 843 237 54 7 57 9 57 36 0 45 43 152 84 208 147 200 417
254 634 126 118 -69 193 -180 226 -337 5 -22 12 -28 31 -28 14 0 85 -11 157
-26 583 -112 1102 -354 1582 -738 126 -100 407 -380 508 -506 293 -365 490
-724 635 -1157 52 -157 123 -434 123 -482 0 -18 4 -22 18 -16 34 15 174 18
231 5 219 -48 371 -238 371 -464 0 -145 -44 -249 -147 -347 -97 -93 -191 -129
-335 -129 -65 0 -88 -3 -88 -13 0 -7 -7 -66 -15 -132 -85 -686 -346 -1303
-777 -1842 -124 -154 -433 -467 -522 -528 -70 -48 -135 -102 -136 -112 0 -6
-5 -13 -12 -15 -6 -2 -8 -10 -4 -17 5 -7 14 -10 20 -8 9 4 8 -4 -2 -28 -9 -19
-19 -32 -22 -30 -4 3 -5 -7 -2 -20 2 -14 8 -25 12 -25 5 0 6 9 3 20 -3 11 0
20 6 20 6 0 11 -7 11 -15 0 -8 7 -15 16 -15 14 0 14 1 0 16 -18 17 -21 34 -6
34 5 0 7 6 4 14 -3 8 -1 17 4 20 5 3 12 -4 16 -17 3 -12 1 -24 -4 -25 -15 -5
-12 -22 4 -22 10 0 13 11 12 34 -1 26 2 32 11 24 7 -5 16 -7 22 -4 17 11 20
-22 3 -36 -15 -12 -16 -11 -3 5 7 9 10 17 5 17 -13 0 -45 -60 -38 -71 3 -5 12
-9 20 -9 8 0 12 -4 9 -10 -3 -5 -3 -10 2 -10 12 1 45 50 33 50 -5 0 -10 -5
-10 -10 0 -7 -8 -7 -22 1 l-21 11 24 14 c40 22 52 18 45 -17 -5 -25 -3 -30 9
-25 8 3 15 1 15 -4 0 -6 -6 -10 -12 -10 -8 0 -5 -7 6 -15 11 -8 25 -15 30 -14
6 0 5 3 -1 6 -18 7 -16 44 3 71 16 23 6 30 -14 10 -9 -9 -12 -9 -12 0 0 7 5
12 11 12 5 0 8 4 5 9 -3 4 -17 7 -31 6 -14 -2 -23 0 -20 5 3 4 -2 11 -11 14
-10 4 -14 13 -10 24 5 15 5 15 -7 1 -11 -15 -14 -15 -27 -1 -13 14 -12 15 3 9
9 -3 17 -2 17 4 0 6 6 9 13 6 6 -2 12 -9 12 -15 0 -7 2 -11 5 -10 3 2 20 -7
38 -20 29 -21 33 -22 48 -8 9 9 21 13 27 9 7 -4 4 -9 -8 -13 -17 -6 -17 -7 4
-13 17 -4 22 -11 17 -23 -5 -14 -4 -15 8 -5 8 7 20 10 25 7 5 -4 13 -1 17 5 5
8 3 9 -6 4 -9 -5 -11 -4 -6 4 6 9 11 9 24 -1 13 -11 15 -10 9 4 -3 10 -1 20 5
24 7 4 8 3 4 -4 -10 -16 16 -15 33 0 11 10 13 10 7 1 -4 -8 -2 -13 6 -13 7 0
1 -8 -14 -18 -24 -16 -25 -19 -11 -37 15 -20 15 -20 10 3 -4 18 -3 21 8 12 10
-8 15 -5 23 17 6 15 11 21 11 12 1 -9 8 -22 16 -29 12 -10 15 -10 15 3 0 8 -6
17 -12 20 -22 7 -2 18 36 20 36 2 52 17 19 17 -15 0 -16 2 -3 10 13 8 12 10
-2 10 -17 0 -17 1 -1 20 19 22 33 26 33 9 0 -5 -6 -7 -12 -3 -10 6 -10 5 -1
-8 7 -8 10 -18 6 -21 -3 -4 -1 -7 6 -7 9 0 9 -5 1 -20 -6 -11 -14 -19 -18 -17
-4 1 -7 -2 -7 -8 0 -5 3 -9 8 -7 4 1 7 -7 7 -18 0 -11 -5 -20 -12 -20 -6 0 -8
-3 -5 -7 4 -3 0 -15 -10 -25 -10 -12 -12 -18 -4 -18 7 0 9 -5 5 -12 -4 -7 -3
-8 5 -4 6 4 9 12 6 17 -4 5 3 22 14 37 13 18 17 33 11 42 -13 21 -1 33 18 18
14 -10 15 -10 5 2 -20 22 -15 32 10 24 12 -4 27 -7 34 -7 8 0 8 -5 0 -18 -6
-10 -16 -15 -22 -11 -5 3 -4 -2 3 -11 8 -9 11 -21 7 -27 -3 -5 2 -10 12 -11
13 0 14 -2 4 -6 -8 -3 -20 2 -28 13 -10 14 -13 14 -13 3 0 -26 21 -39 43 -28
12 7 23 7 29 1 6 -6 0 -12 -16 -16 -14 -3 -26 -10 -26 -15 0 -5 14 -3 30 5 36
19 37 21 5 46 -14 11 -24 27 -24 36 1 15 2 15 6 0 5 -19 6 -20 43 -22 14 0 29
-5 33 -11 5 -6 7 -4 4 5 -2 8 -13 16 -25 18 -24 4 -48 29 -38 39 4 4 11 1 16
-7 6 -9 10 -10 10 -3 0 7 -8 17 -17 22 -13 8 -14 10 -4 11 8 0 27 -15 42 -32
16 -18 28 -28 29 -22 0 7 -8 15 -17 20 -14 6 -10 9 17 14 19 3 40 3 46 -2 7
-5 10 0 9 14 -1 12 -7 24 -13 26 -7 2 -12 13 -12 25 0 21 1 21 13 -2 11 -22
35 -30 30 -10 -2 4 5 5 14 2 11 -4 13 -8 5 -11 -7 -2 -9 -9 -6 -14 4 -7 2 -8
-4 -4 -8 5 -11 -1 -10 -18 2 -24 4 -25 25 -11 25 17 47 20 38 6 -10 -17 15
-23 31 -7 9 9 20 14 25 11 12 -8 12 -35 -1 -35 -5 0 -6 7 -3 17 4 11 3 14 -5
9 -19 -12 -14 -30 16 -59 32 -30 52 -35 52 -11 0 9 -5 12 -12 8 -7 -4 -8 -3
-4 4 4 7 3 12 -3 12 -5 0 -11 -5 -13 -11 -2 -7 -8 -5 -17 4 -11 14 -9 15 16
13 15 -2 34 -4 42 -5 7 0 11 -7 8 -15 -3 -8 1 -22 8 -33 8 -10 15 -13 15 -6 0
6 -4 14 -10 18 -5 3 -7 12 -4 19 3 8 1 17 -5 21 -16 9 -13 22 4 22 8 0 15 -5
15 -10 0 -6 3 -7 7 -4 3 4 15 -1 25 -10 15 -14 21 -14 31 -3 9 10 9 11 0 6 -8
-4 -13 -1 -13 8 0 9 7 13 19 11 15 -3 18 1 13 17 -3 14 -1 19 6 14 15 -9 15 9
2 35 -6 10 -20 19 -31 19 -11 0 -17 -4 -14 -10 3 -5 1 -10 -4 -10 -6 0 -11 10
-11 23 0 14 -3 18 -8 10 -7 -10 -12 -10 -26 0 -16 12 -15 13 13 11 27 -2 31 1
26 17 -4 10 -2 19 3 19 6 0 9 -11 8 -24 -4 -31 35 -42 53 -14 6 10 17 18 24
18 6 0 4 -5 -5 -11 -28 -16 -23 -49 7 -49 24 0 73 52 67 71 -1 5 4 8 10 7 8
-2 12 6 10 22 -1 18 0 21 7 11 7 -11 14 -9 35 15 14 16 26 35 26 42 0 6 4 12
9 12 22 0 278 370 383 555 273 479 464 1052 532 1590 41 328 47 961 12 1265
-99 853 -412 1610 -934 2259 -432 537 -1038 1002 -1642 1260 -41 18 -93 41
-115 51 -84 38 -396 139 -550 178 -294 75 -551 114 -870 132 -197 11 -254 11
-455 0z m-2510 -7336 c0 -8 -19 -13 -24 -6 -3 5 1 9 9 9 8 0 15 -2 15 -3z
m5120 0 c0 -8 -19 -13 -24 -6 -3 5 1 9 9 9 8 0 15 -2 15 -3z m-5200 -14 c0 -5
-5 -10 -11 -10 -5 0 -7 5 -4 10 3 6 8 10 11 10 2 0 4 -4 4 -10z m5120 0 c0 -5
-5 -10 -11 -10 -5 0 -7 5 -4 10 3 6 8 10 11 10 2 0 4 -4 4 -10z m-5603 -19 c0
-11 -5 -18 -9 -15 -4 3 -5 11 -1 19 7 21 12 19 10 -4z m6333 7 c0 -4 -4 -8 -9
-8 -6 0 -12 4 -15 8 -3 5 1 9 9 9 8 0 15 -4 15 -9z m35 2 c3 -5 1 -10 -4 -10
-6 0 -11 5 -11 10 0 6 2 10 4 10 3 0 8 -4 11 -10z m-5850 -20 c-3 -5 -12 -10
-18 -10 -7 0 -6 4 3 10 19 12 23 12 15 0z m5120 0 c-3 -5 -12 -10 -18 -10 -7
0 -6 4 3 10 19 12 23 12 15 0z m-5580 -9 c3 -5 2 -12 -3 -15 -5 -3 -9 1 -9 9
0 17 3 19 12 6z m892 3 c-3 -3 -12 -4 -19 -1 -8 3 -5 6 6 6 11 1 17 -2 13 -5z
m5120 0 c-3 -3 -12 -4 -19 -1 -8 3 -5 6 6 6 11 1 17 -2 13 -5z m254 -17 c-10
-9 -11 -8 -5 6 3 10 9 15 12 12 3 -3 0 -11 -7 -18z m-5261 -2 c11 -13 10 -14
-4 -9 -9 3 -16 10 -16 15 0 13 6 11 20 -6z m87 -7 c-3 -8 -6 -5 -6 6 -1 11 2
17 5 13 3 -3 4 -12 1 -19z m5033 7 c11 -13 10 -14 -4 -9 -9 3 -16 10 -16 15 0
13 6 11 20 -6z m87 -7 c-3 -8 -6 -5 -6 6 -1 11 2 17 5 13 3 -3 4 -12 1 -19z
m-6177 8 c0 -3 -4 -8 -10 -11 -5 -3 -10 -1 -10 4 0 6 5 11 10 11 6 0 10 -2 10
-4z m286 -23 c13 -20 13 -25 2 -16 -8 7 -18 10 -21 7 -3 -4 -5 3 -4 15 2 26 1
26 23 -6z m192 15 c10 -13 12 -18 12 -39 0 -5 4 -7 10 -4 5 3 8 0 5 -7 -6 -14
-75 -19 -75 -6 0 8 15 12 38 9 6 -1 12 3 12 9 0 5 -10 10 -22 10 -21 0 -21 0
-2 16 17 14 17 15 1 10 -11 -3 -16 -2 -12 4 8 14 20 13 33 -2z m352 -20 c0
-12 -6 -9 -26 13 -19 22 -19 22 4 8 12 -8 22 -17 22 -21z m4768 20 c10 -13 12
-18 12 -39 0 -5 4 -7 10 -4 5 3 8 0 5 -7 -6 -14 -75 -19 -75 -6 0 8 15 12 38
9 6 -1 12 3 12 9 0 5 -10 10 -22 10 -21 0 -21 0 -2 16 17 14 17 15 1 10 -11
-3 -16 -2 -12 4 8 14 20 13 33 -2z m352 -20 c0 -12 -6 -9 -26 13 -19 22 -19
22 4 8 12 -8 22 -17 22 -21z m307 25 c-4 -3 -1 -13 6 -22 11 -14 10 -14 -5 -2
-16 12 -16 31 -1 31 4 0 3 -3 0 -7z m-6099 -28 c-3 -3 -9 2 -12 12 -6 14 -5
15 5 6 7 -7 10 -15 7 -18z m246 -9 c2 -14 0 -23 -4 -21 -4 3 -7 16 -7 30 0 32
8 26 11 -9z m162 22 c4 -7 3 -8 -4 -4 -7 4 -12 2 -12 -5 0 -7 -3 -10 -6 -6 -6
5 3 27 11 27 2 0 7 -5 11 -12z m117 -7 c-14 -10 -9 -46 7 -53 11 -5 10 -7 -6
-7 -17 -1 -20 5 -20 38 1 28 5 37 14 33 8 -2 10 -8 5 -11z m427 -14 c0 -8 -3
-7 -9 2 -5 8 -16 11 -24 8 -11 -4 -14 -1 -10 8 6 17 43 2 43 -18z m4300 8 c14
-18 13 -19 -1 -8 -9 7 -19 10 -22 6 -4 -3 -7 -2 -7 4 0 9 12 26 14 21 1 -2 8
-12 16 -23z m114 -9 c2 -14 0 -23 -4 -21 -4 3 -7 16 -7 30 0 32 8 26 11 -9z
m162 22 c4 -7 3 -8 -4 -4 -7 4 -12 2 -12 -5 0 -7 -3 -10 -6 -6 -6 5 3 27 11
27 2 0 7 -5 11 -12z m117 -7 c-14 -10 -9 -46 7 -53 11 -5 10 -7 -6 -7 -17 -1
-20 5 -20 38 1 28 5 37 14 33 8 -2 10 -8 5 -11z m427 -14 c0 -8 -3 -7 -9 2 -5
8 -16 11 -24 8 -11 -4 -14 -1 -10 8 6 17 43 2 43 -18z m-6053 1 c-3 -8 -6 -5
-6 6 -1 11 2 17 5 13 3 -3 4 -12 1 -19z m415 0 c-7 -7 -12 -8 -12 -2 0 6 3 14
7 17 3 4 9 5 12 2 2 -3 -1 -11 -7 -17z m428 1 c0 -6 -4 -7 -10 -4 -5 3 -10 11
-10 16 0 6 5 7 10 4 6 -3 10 -11 10 -16z m4692 -1 c-7 -7 -12 -8 -12 -2 0 14
12 26 19 19 2 -3 -1 -11 -7 -17z m428 1 c0 -6 -4 -7 -10 -4 -5 3 -10 11 -10
16 0 6 5 7 10 4 6 -3 10 -11 10 -16z m-6001 -32 c13 -4 13 -5 1 -6 -8 0 -26 9
-40 20 -14 11 -19 18 -12 14 6 -3 12 0 13 7 0 7 5 3 11 -9 6 -12 18 -24 27
-26z m642 23 c6 0 7 5 3 12 -4 7 -3 8 5 4 6 -4 9 -12 6 -17 -4 -5 -2 -9 3 -9
6 0 13 -8 16 -17 6 -15 4 -15 -14 2 -15 14 -20 15 -21 4 0 -15 -18 19 -18 36
1 6 3 4 6 -2 2 -7 9 -13 14 -13z m90 1 c-6 -10 -8 -21 -5 -24 3 -3 -3 -3 -15
0 -11 3 -18 9 -15 14 3 5 9 7 14 4 4 -3 10 2 14 10 3 8 8 15 11 15 3 0 1 -8
-4 -19z m5030 -1 c6 0 7 5 3 12 -4 7 -3 8 5 4 6 -4 9 -12 6 -17 -4 -5 -2 -9 3
-9 6 0 13 -8 16 -17 6 -15 4 -15 -14 2 -15 14 -20 15 -21 4 0 -15 -18 19 -18
36 1 6 3 4 6 -2 2 -7 9 -13 14 -13z m90 1 c-6 -10 -8 -21 -5 -24 3 -3 -3 -3
-15 0 -11 3 -18 9 -15 14 3 5 9 7 14 4 4 -3 10 2 14 10 3 8 8 15 11 15 3 0 1
-8 -4 -19z m464 9 c-3 -5 2 -10 11 -10 10 0 15 -3 11 -6 -10 -10 -39 5 -32 16
3 5 8 10 11 10 3 0 2 -4 -1 -10z m-6395 -15 c-14 -17 -36 -20 -45 -6 -3 6 3 8
15 6 11 -2 22 0 25 6 4 5 9 9 12 9 3 0 0 -7 -7 -15z m557 -3 c-17 -18 -51 -27
-41 -10 3 4 12 8 20 8 8 0 14 5 14 10 0 6 5 10 12 10 6 0 4 -7 -5 -18z m5120
0 c-17 -18 -51 -27 -41 -10 3 4 12 8 20 8 8 0 14 5 14 10 0 6 5 10 12 10 6 0
4 -7 -5 -18z m593 3 c0 -2 -6 -5 -13 -8 -8 -3 -14 1 -14 8 0 7 6 11 14 8 7 -3
13 -6 13 -8z m-5785 -15 c-3 -4 0 -11 5 -13 6 -3 5 -4 -1 -3 -7 1 -13 10 -15
19 -1 9 2 15 7 11 5 -3 7 -9 4 -14z m535 5 c0 -14 4 -14 33 1 27 14 30 14 17
1 -20 -20 -76 -35 -65 -17 4 7 2 16 -6 21 -11 7 -10 9 4 9 9 0 17 -7 17 -15z
m4585 -5 c-3 -4 0 -11 5 -13 6 -3 5 -4 -1 -3 -7 1 -13 10 -15 19 -1 9 2 15 7
11 5 -3 7 -9 4 -14z m535 5 c0 -14 4 -14 33 1 27 14 30 14 17 1 -20 -20 -76
-35 -65 -17 4 7 2 16 -6 21 -11 7 -10 9 4 9 9 0 17 -7 17 -15z m-6195 -5 c3
-6 -1 -7 -9 -4 -18 7 -21 14 -7 14 6 0 13 -4 16 -10z m176 0 c0 8 5 2 9 -14
10 -33 7 -42 -19 -55 -14 -8 -17 -6 -16 11 1 12 8 24 16 26 11 3 11 1 -1 -7
-9 -7 -10 -11 -3 -11 19 0 26 20 9 26 -9 3 -16 14 -16 23 0 14 2 14 10 1 9
-13 10 -13 11 0z m6233 -22 c-4 -5 -11 -5 -18 1 -9 7 -16 7 -24 -1 -7 -7 -12
-8 -12 -4 0 18 34 35 47 24 7 -6 10 -14 7 -20z m-5891 9 c3 -8 -1 -14 -8 -14
-7 0 -11 6 -8 14 3 7 6 13 8 13 2 0 5 -6 8 -13z m382 3 c-3 -5 -11 -10 -16
-10 -6 0 -7 5 -4 10 3 6 11 10 16 10 6 0 7 -4 4 -10z m29 -5 c-4 -8 -11 -15
-16 -15 -6 0 -5 6 2 15 7 8 14 15 16 15 2 0 1 -7 -2 -15z m242 -29 c-3 -11 -5
-23 -5 -26 -1 -3 -5 2 -11 10 -6 9 -5 17 2 21 6 4 7 12 4 18 -4 6 -12 8 -18 5
-7 -4 -8 -2 -4 5 12 19 36 -7 32 -33z m4467 31 c3 -8 -1 -14 -8 -14 -7 0 -11
6 -8 14 3 7 6 13 8 13 2 0 5 -6 8 -13z m382 3 c-3 -5 -11 -10 -16 -10 -6 0 -7
5 -4 10 3 6 11 10 16 10 6 0 7 -4 4 -10z m29 -5 c-4 -8 -11 -15 -16 -15 -6 0
-5 6 2 15 7 8 14 15 16 15 2 0 1 -7 -2 -15z m242 -29 c-3 -11 -5 -23 -5 -26
-1 -3 -5 2 -11 10 -6 9 -5 17 2 21 6 4 7 12 4 18 -4 6 -12 8 -18 5 -7 -4 -8
-2 -4 5 12 19 36 -7 32 -33z m-5246 30 c0 -2 -7 -6 -15 -10 -8 -3 -15 -1 -15
4 0 6 7 10 15 10 8 0 15 -2 15 -4z m175 -16 c5 -16 10 -18 25 -10 14 8 21 5
34 -15 9 -14 15 -25 14 -26 -26 -7 -38 -5 -38 7 0 9 4 12 10 9 6 -4 7 1 3 11
-5 15 -7 15 -15 0 -7 -12 -14 -13 -33 -6 -14 5 -25 7 -25 4 0 -3 -5 -2 -10 1
-7 4 -7 13 0 26 14 25 27 24 35 -1z m4945 16 c0 -2 -7 -6 -15 -10 -8 -3 -15
-1 -15 4 0 6 7 10 15 10 8 0 15 -2 15 -4z m175 -16 c5 -16 10 -18 25 -10 19
10 39 -4 26 -17 -3 -4 -6 0 -6 8 -1 10 -3 9 -11 -3 -7 -14 -15 -15 -34 -8 -14
5 -25 7 -25 4 0 -3 -5 -2 -10 1 -7 4 -7 13 0 26 14 25 27 24 35 -1z m-5202
-20 c3 -11 2 -18 -3 -15 -4 3 -10 14 -13 25 -3 11 -2 18 3 15 4 -3 10 -14 13
-25z m5120 0 c3 -11 2 -18 -3 -15 -4 3 -10 14 -13 25 -3 11 -2 18 3 15 4 -3
10 -14 13 -25z"/>
<path d="M4285 8367 c-147 -49 -241 -144 -286 -288 -18 -57 -25 -161 -14 -191
5 -13 112 -16 203 -5 17 2 32 1 32 -2 0 -5 510 -6 588 -2 8 1 12 23 12 76 0
173 -90 314 -249 388 -56 27 -80 32 -156 34 -55 2 -105 -2 -130 -10z"/>
<path d="M3865 7709 c-599 -104 -1132 -355 -1587 -747 -119 -102 -315 -303
-404 -412 -360 -442 -603 -970 -703 -1528 l-20 -112 39 -53 c137 -181 132
-421 -14 -600 -41 -51 -46 -62 -46 -107 0 -29 5 -50 11 -50 22 0 120 105 145
156 l26 54 850 -2 849 -3 39 -150 c99 -389 249 -608 596 -876 57 -44 104 -86
104 -93 0 -7 7 -83 16 -170 8 -87 13 -160 11 -163 -13 -13 -365 239 -491 351
l-81 73 -171 -160 -170 -160 13 -51 c50 -184 -113 -373 -303 -353 -105 11
-195 74 -238 166 -31 70 -29 180 6 246 64 122 192 182 328 152 29 -6 40 -3 60
15 14 13 90 81 170 151 80 71 149 134 154 141 5 7 -12 40 -47 91 -75 109 -146
246 -202 390 -26 66 -48 121 -49 123 -5 5 -1610 62 -1615 56 -8 -8 26 -231 55
-364 163 -740 576 -1411 1156 -1876 119 -97 278 -210 278 -200 0 3 11 -5 24
-17 13 -12 46 -33 73 -47 26 -13 50 -27 53 -31 11 -14 66 -36 79 -31 8 3 11 0
7 -6 -4 -6 2 -16 13 -22 16 -8 22 -7 29 7 9 14 10 14 16 -5 4 -12 17 -27 29
-34 21 -10 21 -10 7 7 -14 17 -13 18 13 13 15 -3 27 -1 27 5 0 6 7 2 15 -9 15
-19 15 -19 8 1 -7 19 -6 19 11 3 9 -10 22 -18 27 -18 5 0 9 -8 9 -17 -1 -17
-2 -17 -14 0 -9 12 -16 14 -21 8 -9 -15 -25 -14 -25 2 0 8 -7 14 -15 14 -20 0
-19 -17 2 -33 13 -9 22 -9 31 -2 9 8 11 7 6 -6 -3 -9 -1 -16 6 -16 6 0 9 4 5
9 -3 6 3 9 14 8 16 -1 18 -4 8 -17 -6 -8 -7 -12 -3 -8 5 4 15 3 23 -3 7 -6 13
-8 13 -3 0 4 7 -1 16 -12 8 -10 12 -13 8 -5 -5 10 -3 13 9 8 9 -3 18 1 21 10
4 10 2 13 -7 10 -8 -3 -20 -1 -28 3 -8 6 -17 4 -22 -3 -6 -8 -7 -7 -4 4 3 9 1
21 -5 27 -12 12 -2 46 11 38 5 -4 11 0 14 6 3 7 4 3 4 -9 -1 -25 -12 -30 -20
-10 -3 7 -6 5 -6 -5 -1 -10 6 -18 15 -18 8 0 12 -4 9 -10 -3 -5 -3 -10 2 -11
51 -5 76 -2 80 8 3 7 9 10 14 7 8 -5 13 9 10 28 0 4 6 5 14 2 8 -4 15 -10 15
-16 0 -5 -5 -6 -12 -2 -7 4 -8 3 -4 -4 4 -7 20 -10 36 -7 28 5 29 4 20 -21 -6
-14 -8 -29 -5 -34 3 -4 -4 -19 -15 -32 -15 -19 -16 -25 -4 -25 8 0 12 2 9 5
-2 3 4 17 15 32 11 15 16 31 12 36 -4 4 2 2 12 -6 13 -10 17 -11 12 -2 -12 20
-17 62 -7 62 11 0 2 38 -11 46 -6 4 -7 -2 -3 -16 5 -16 4 -20 -5 -15 -7 4 -9
17 -5 34 4 14 8 32 8 39 0 9 5 8 17 -3 11 -10 15 -25 12 -46 -3 -21 -1 -30 6
-25 6 4 8 14 5 23 -4 11 -3 14 6 9 7 -5 20 -1 29 7 16 14 17 13 17 -8 0 -16
-4 -20 -11 -14 -6 5 -13 6 -17 3 -8 -9 4 -35 13 -29 23 14 82 -37 64 -54 -4
-3 -9 0 -11 7 -3 6 -10 9 -16 5 -6 -4 -8 0 -4 10 3 9 -1 18 -10 21 -23 9 -28
-1 -10 -19 9 -8 14 -22 10 -31 -6 -16 -13 -13 -17 8 -3 25 -17 37 -34 31 -15
-6 -15 -5 -3 10 20 25 8 31 -14 7 -10 -11 -13 -20 -7 -20 6 0 10 -8 10 -18 0
-9 1 -23 3 -31 2 -9 -5 -17 -16 -19 -22 -5 -36 -22 -29 -34 10 -16 23 -8 17
10 -6 15 -5 15 10 3 9 -7 18 -11 18 -7 2 10 6 25 9 34 1 4 2 10 2 14 -1 3 5 9
13 12 10 3 17 -4 22 -22 l6 -27 12 27 c11 27 11 27 35 10 28 -19 90 -25 87 -8
-1 6 8 10 21 9 14 -2 22 3 22 12 0 22 -33 18 -48 -5 -9 -15 -20 -19 -38 -16
-15 3 -29 7 -31 10 -9 9 12 31 32 33 19 1 19 1 2 -12 -14 -10 -15 -14 -3 -18
8 -3 22 3 32 14 10 11 12 19 6 19 -7 0 -12 9 -12 21 0 11 -5 17 -10 14 -6 -4
-8 -11 -5 -16 4 -5 1 -9 -4 -9 -6 0 -11 9 -11 20 0 11 5 20 11 20 5 0 7 4 4
10 -3 6 1 7 9 4 9 -3 15 -9 14 -12 0 -4 0 -16 1 -27 2 -20 2 -20 16 -1 8 11
18 17 21 13 4 -4 2 -13 -4 -20 -9 -10 -9 -14 1 -15 6 0 25 -3 40 -7 19 -4 26
-2 22 5 -3 5 1 10 9 10 9 0 16 -4 16 -9 0 -6 8 -8 19 -6 15 3 18 -1 13 -18 -4
-16 -7 -17 -11 -6 -8 21 -35 18 -39 -5 -3 -11 0 -16 7 -12 6 4 11 3 11 -2 0
-5 10 -8 22 -7 17 1 23 8 23 26 0 21 5 24 37 24 20 0 34 3 32 7 -2 3 2 8 8 11
7 2 -14 3 -46 2 -33 -2 -69 1 -80 5 -20 8 -20 9 3 9 21 1 22 3 10 18 -8 10 0
7 18 -7 25 -18 35 -21 46 -12 10 9 16 9 25 0 9 -9 12 -9 12 1 0 7 5 9 10 6 6
-4 19 -1 28 7 15 11 15 11 5 -2 -6 -9 -17 -28 -22 -43 -10 -26 -9 -27 16 -21
20 6 24 4 18 -7 -5 -8 -5 -11 0 -7 4 4 15 2 24 -4 12 -10 12 -8 -1 8 -10 11
-18 26 -18 34 0 10 -3 10 -17 -1 -15 -13 -15 -12 -3 6 13 22 50 31 50 14 0 -6
-4 -8 -9 -4 -5 3 -3 -8 5 -25 16 -31 28 -37 39 -20 4 6 11 8 16 5 14 -9 12
-58 38 975 12 470 23 856 25 858 2 2 49 -9 105 -25 l101 -28 0 -80 c0 -44 -11
-397 -25 -784 l-24 -704 -37 -34 c-20 -18 -40 -33 -44 -33 -12 0 -59 -58 -80
-101 -21 -41 -26 -69 -11 -69 5 0 7 9 4 20 -3 11 0 20 6 20 6 0 11 -7 11 -15
0 -8 7 -15 16 -15 14 0 14 1 0 16 -18 17 -21 34 -6 34 5 0 7 6 4 14 -3 8 -1
17 4 20 5 3 12 -4 16 -17 3 -12 1 -23 -4 -25 -15 -5 -12 -22 4 -22 10 0 13 11
12 34 -1 28 1 32 12 23 11 -9 17 -7 28 8 8 10 14 15 14 10 0 -4 9 0 19 9 11
10 17 25 14 34 -4 13 -3 14 5 4 7 -11 22 -6 71 21 33 18 59 36 56 39 -3 2 3 5
13 5 45 -1 73 4 69 11 -8 11 226 -4 250 -16 27 -15 36 -15 27 0 -4 7 -3 8 5 4
6 -4 9 -11 6 -16 -5 -9 50 -31 58 -23 3 2 13 -7 23 -22 12 -19 19 -23 25 -13
6 9 11 5 17 -12 14 -35 56 -72 78 -68 11 2 20 -4 22 -14 2 -10 -1 -18 -7 -18
-6 0 -7 7 -4 17 4 11 3 14 -5 9 -18 -11 -15 -21 14 -55 27 -33 54 -41 54 -17
0 20 -21 31 -30 17 -5 -9 -11 -7 -21 5 -12 16 -12 17 2 12 9 -3 22 -2 30 3 11
7 11 9 1 9 -7 0 -18 14 -24 31 -9 27 -13 29 -40 23 -23 -4 -29 -3 -23 6 4 7 1
16 -6 21 -11 7 -10 9 4 9 9 0 17 -7 17 -16 0 -8 5 -12 11 -8 7 4 -11 28 -45
61 l-56 55 0 787 0 788 68 6 c37 4 84 7 105 7 l37 0 1 -797 c1 -439 0 -813 -1
-830 -1 -30 1 -33 24 -31 20 2 25 7 20 20 -3 10 -1 18 4 18 6 0 9 -11 8 -24
-4 -31 35 -42 53 -14 6 10 17 18 24 18 6 0 4 -5 -5 -11 -26 -15 -23 -49 5 -50
19 0 20 -1 4 -8 -10 -4 -18 -11 -18 -16 0 -6 -2 -18 -5 -28 -6 -20 -24 -13
-24 9 0 8 5 12 10 9 13 -8 13 11 0 36 -6 10 -20 19 -31 19 -11 0 -17 -4 -14
-10 3 -5 1 -10 -4 -10 -6 0 -11 10 -12 23 0 12 -3 17 -5 10 -3 -7 -11 -10 -17
-7 -7 2 -13 -4 -14 -16 -1 -11 2 -20 7 -20 5 0 12 -9 15 -20 5 -16 10 -18 25
-10 19 10 39 -4 26 -17 -3 -4 -6 0 -6 8 -1 10 -3 9 -11 -3 -7 -13 -15 -15 -34
-8 -19 7 -23 6 -18 -5 3 -8 9 -13 13 -10 4 3 13 -2 20 -11 7 -8 19 -13 25 -10
7 2 18 -4 25 -15 10 -13 17 -15 27 -7 18 14 16 29 -2 22 -11 -5 -13 -2 -9 10
3 9 11 13 18 9 6 -3 8 -3 4 2 -4 4 0 14 8 22 8 8 12 18 9 23 -3 4 1 10 8 13 8
3 12 -6 13 -25 1 -16 -2 -24 -6 -18 -5 8 -10 9 -14 2 -4 -6 2 -16 11 -21 17
-10 17 -12 1 -21 -10 -6 -18 -15 -18 -21 0 -5 10 -2 23 7 16 12 22 27 21 47
-2 21 1 26 9 18 6 -6 18 -11 26 -10 11 0 12 2 4 6 -7 2 -13 11 -13 19 0 24 15
15 27 -15 7 -21 17 -29 31 -28 21 1 20 12 -1 12 -18 0 -14 42 5 54 17 10 17
10 6 -9 -11 -17 -10 -22 2 -30 30 -19 42 21 15 56 -8 10 -14 24 -15 29 0 6 3
5 8 -1 9 -13 57 -40 49 -27 -3 5 -2 15 4 23 7 12 9 10 9 -7 0 -13 8 -24 19
-28 12 -3 18 -12 15 -20 -3 -8 -12 -11 -20 -8 -8 3 -12 9 -9 13 3 5 1 11 -5
15 -5 3 -10 1 -10 -5 0 -6 -6 -8 -12 -4 -7 3 0 -5 17 -19 16 -14 38 -23 47
-22 10 2 20 0 23 -4 5 -10 54 -6 63 5 4 4 -1 4 -10 1 -10 -4 -18 -2 -18 5 0 7
-4 7 -14 -1 -12 -10 -13 -8 -9 9 4 16 8 18 19 9 16 -13 48 -4 39 11 -5 8 -11
8 -20 0 -9 -8 -14 -6 -19 7 -6 15 -10 13 -31 -12 -13 -17 -24 -24 -25 -17 0 6
5 12 11 12 5 0 7 5 4 10 -3 6 -1 10 5 10 7 0 10 6 7 14 -4 10 3 12 24 10 26
-3 29 -1 24 16 -4 12 -2 20 5 20 6 0 8 -5 5 -11 -4 -6 2 -13 14 -16 11 -3 18
-9 15 -14 -3 -5 2 -9 10 -9 9 0 16 5 16 10 0 6 5 10 10 10 23 0 7 -20 -22 -29
-29 -8 -30 -9 -8 -10 20 -1 22 -3 10 -11 -11 -7 -11 -10 -2 -10 9 0 10 -5 3
-19 -8 -15 -7 -20 6 -25 9 -4 19 -3 22 0 3 4 0 9 -6 11 -18 6 -16 23 2 23 8 0
15 5 15 10 0 17 25 11 40 -10 14 -19 15 -19 22 -3 5 14 7 12 7 -8 1 -21 -3
-25 -21 -24 -13 1 -32 -4 -43 -11 -11 -7 -24 -13 -28 -13 -5 1 -11 -2 -14 -5
-3 -3 7 -3 22 0 14 2 24 1 21 -4 -2 -4 4 -9 15 -9 17 -2 18 1 8 13 -10 12 -10
15 2 12 8 -2 17 -10 21 -18 5 -12 7 -11 7 4 1 12 6 16 16 12 8 -3 15 -1 15 4
0 6 5 10 11 10 6 0 8 -7 5 -16 -3 -9 -2 -12 5 -9 6 4 8 13 6 19 -3 7 3 19 13
26 11 8 17 18 14 22 -3 5 -17 -3 -30 -18 -14 -14 -28 -24 -31 -21 -3 3 8 17
23 31 16 14 23 26 17 26 -7 0 -13 6 -13 13 0 8 -7 14 -15 14 -8 0 -15 -6 -15
-14 0 -7 4 -13 8 -13 5 0 9 -7 9 -15 0 -24 -14 -17 -21 10 -4 14 -10 24 -15
21 -4 -3 -8 2 -8 10 0 11 7 14 24 11 13 -2 23 1 23 6 0 6 7 2 15 -9 15 -19 15
-19 8 1 -7 19 -6 19 11 3 9 -10 22 -18 28 -18 6 0 8 -9 5 -20 -3 -13 -1 -18 6
-13 9 5 9 3 1 -8 -6 -8 -10 -22 -9 -31 2 -9 -4 -19 -12 -22 -11 -5 -13 0 -8
17 5 20 5 20 -5 4 -7 -10 -9 -21 -6 -25 11 -10 36 -11 36 -1 0 6 6 7 13 3 9
-6 9 -5 0 7 -9 11 -8 18 3 33 10 14 11 23 3 33 -13 15 -4 47 10 39 5 -4 11 0
14 6 3 7 4 3 4 -9 -1 -25 -12 -30 -20 -10 -3 7 -6 5 -6 -5 -1 -10 6 -18 15
-18 8 0 12 -5 9 -10 -7 -11 5 -13 44 -10 13 1 21 -3 17 -8 -6 -10 -48 -8 -66
3 -9 5 -10 1 -5 -16 5 -19 4 -21 -4 -9 -7 9 -11 10 -11 3 0 -18 21 -27 30 -13
4 7 13 9 19 6 6 -4 11 -2 11 4 0 6 4 9 9 6 5 -3 14 1 21 9 7 8 16 12 21 9 5
-3 6 3 2 12 -4 12 -3 15 5 10 11 -6 16 5 13 26 0 4 6 5 14 2 8 -4 15 -10 15
-16 0 -5 -6 -6 -12 -2 -10 5 -10 4 -2 -5 19 -20 61 6 61 37 0 15 2 37 4 49 3
20 5 21 20 7 9 -8 15 -26 13 -42 -2 -15 -1 -19 2 -10 3 9 11 15 18 12 7 -3 19
2 26 10 7 9 16 13 21 10 5 -3 9 -1 9 5 0 5 -6 12 -12 14 -8 3 -6 6 5 6 9 1 17
-5 17 -11 0 -9 4 -8 10 2 5 8 10 11 10 6 0 -5 8 -3 18 5 9 8 34 23 54 33 20
10 46 27 58 38 11 10 20 16 20 13 0 -10 184 120 285 200 723 577 1166 1411
1245 2347 l11 127 -34 53 c-51 81 -68 135 -74 228 -6 96 10 177 52 260 24 47
25 53 14 122 -15 99 -21 107 -48 70 -30 -43 -51 -96 -51 -131 0 -16 -4 -32 -8
-35 -4 -2 -370 2 -812 9 -443 8 -824 15 -847 15 -41 0 -42 1 -53 43 -6 23 -28
98 -50 167 -103 329 -248 519 -545 714 -55 36 -109 72 -121 80 -20 14 -20 16
-7 133 8 65 17 134 21 154 l7 37 119 -80 c160 -107 265 -188 354 -272 l73 -70
148 148 148 148 -14 47 c-17 55 -12 124 15 184 98 222 412 228 518 10 52 -105
31 -238 -49 -321 -68 -71 -186 -107 -272 -83 l-40 11 -157 -157 -157 -157 21
-36 c56 -90 122 -237 165 -367 l47 -143 275 0 c152 0 507 -3 789 -7 281 -3
512 -3 512 1 0 4 -16 72 -35 151 -112 467 -329 909 -632 1291 -108 136 -376
405 -508 510 -297 236 -586 400 -928 528 -170 64 -526 156 -601 156 -15 0 -16
-76 -16 -900 l0 -901 -47 5 c-27 3 -74 8 -105 11 l-58 6 0 786 0 785 85 103
c47 57 85 106 85 108 0 3 -11 7 -25 9 -20 4 -29 -1 -45 -27 -34 -55 -127 -135
-195 -166 -137 -65 -282 -63 -419 5 -68 33 -130 88 -191 168 l-20 26 -110 -19z
m146 -96 c45 -54 89 -106 97 -115 14 -17 14 -7 51 -1093 6 -165 13 -343 16
-396 l6 -95 -96 -27 c-52 -15 -101 -27 -109 -27 -11 0 -15 62 -20 348 -4 191
-9 403 -11 472 -3 69 -7 269 -10 445 -3 176 -8 380 -11 453 -4 72 -4 132 -1
132 3 0 42 -44 88 -97z m519 -943 l0 -710 -105 0 -105 0 0 710 0 710 105 0
105 0 0 -710z m-1789 -140 c132 -66 192 -201 153 -340 l-18 -64 174 -167 174
-167 66 60 c108 100 453 349 465 337 5 -6 35 -247 35 -282 -1 -29 -8 -36 -78
-79 -126 -76 -233 -161 -328 -261 -140 -147 -224 -306 -299 -568 -20 -68 -38
-126 -41 -129 -7 -6 -1467 -31 -1628 -27 l-108 2 -19 50 c-10 28 -37 74 -59
103 -22 29 -40 55 -40 57 0 3 371 5 824 5 l825 0 16 58 c43 155 127 345 210
473 l43 66 -178 178 -178 177 -38 -13 c-22 -7 -66 -12 -100 -12 -220 2 -353
249 -234 436 76 121 238 169 361 107z m986 -1305 c0 -8 -5 -11 -10 -8 -6 4 -7
1 -2 -7 7 -11 10 -10 19 1 6 8 24 13 41 11 71 -7 182 -7 202 0 13 4 23 3 25
-4 3 -7 -45 -89 -105 -182 -60 -94 -137 -215 -171 -268 -33 -53 -64 -97 -67
-97 -8 -1 -239 519 -239 537 0 9 13 12 43 11 24 -2 49 1 55 5 7 4 15 1 18 -9
6 -14 8 -14 19 1 8 12 14 13 19 6 4 -7 15 -8 30 -2 13 5 26 7 29 4 11 -12 62
-10 75 2 17 17 19 17 19 -1z m1255 5 c3 -11 64 -21 73 -12 8 8 65 8 65 -1 0
-4 8 -3 19 2 10 6 21 8 24 5 11 -11 177 -15 177 -4 0 5 11 9 25 8 14 -1 25 -6
25 -11 0 -5 14 -6 30 -2 17 4 30 4 30 0 0 -5 -153 -543 -176 -618 -6 -20 2
-32 -246 356 -87 137 -158 255 -158 263 0 10 5 12 18 7 15 -8 33 -9 70 -4 7 0
10 6 7 11 -3 6 -2 10 4 10 5 0 11 -4 13 -10z m-1658 -12 c-5 -7 -2 -9 8 -5 17
6 10 20 185 -368 l103 -229 -27 -27 c-118 -115 -428 -388 -434 -382 -3 5 -15
51 -24 103 -23 122 -24 333 -2 455 27 153 103 353 163 432 24 31 43 46 28 21z
m810 -9 c4 6 31 8 66 5 33 -3 66 -2 72 2 16 10 48 13 48 4 0 -10 39 -9 45 1 4
5 11 7 16 3 15 -9 174 -8 189 1 9 5 11 4 6 -3 -9 -15 -5 -15 28 -2 16 6 26 6
26 0 0 -6 9 -6 24 0 15 5 27 5 34 -2 8 -8 15 -8 27 2 12 10 15 10 15 -4 0 -15
2 -15 24 -1 23 15 25 15 49 -17 46 -61 440 -673 440 -683 0 -5 -42 -89 -95
-185 -52 -96 -157 -291 -233 -432 l-138 -258 -352 0 -351 0 -22 53 c-113 276
-360 885 -365 898 -5 15 17 51 298 481 50 76 96 138 103 138 6 0 12 6 12 13 1
7 6 5 14 -6 9 -11 17 -14 20 -8z m1419 -11 c43 -49 128 -260 156 -388 37 -169
33 -403 -10 -575 -36 -147 -16 -154 -212 75 -94 111 -173 207 -175 214 -2 8
33 137 78 287 45 151 90 304 101 342 11 37 25 67 31 67 6 0 20 -10 31 -22z
m1963 -575 c-1 -38 2 -80 7 -95 l7 -28 -132 0 c-73 0 -169 -2 -213 -5 -44 -2
-316 -6 -605 -10 -289 -3 -580 -8 -647 -11 l-123 -6 0 111 0 111 854 0 853 0
-1 -67z m-4456 -43 l0 -100 -237 0 c-131 0 -269 -2 -308 -4 -38 -3 -318 -8
-622 -11 l-551 -7 10 43 c5 24 7 74 4 112 l-6 67 855 0 855 0 0 -100z m773
-477 c102 -251 184 -459 182 -462 -3 -2 -110 -19 -237 -38 l-232 -33 -54 52
c-111 109 -225 283 -287 440 -15 37 -25 72 -23 78 3 11 449 419 458 420 3 0
90 -206 193 -457z m1641 148 c132 -154 165 -199 160 -215 -11 -38 -96 -190
-142 -256 -109 -153 -283 -305 -452 -394 l-89 -47 -15 33 c-7 18 -37 82 -66
141 l-51 108 167 307 c311 573 295 545 309 530 7 -7 88 -100 179 -207z m2070
67 c15 -60 44 -132 72 -175 l33 -52 -52 -5 c-29 -3 -362 -11 -742 -17 -379 -7
-698 -15 -708 -18 -11 -4 -36 -51 -68 -131 -62 -156 -137 -297 -211 -400 l-57
-80 149 -137 150 -138 75 4 c135 5 228 -46 282 -157 49 -100 35 -221 -36 -311
-62 -78 -196 -120 -297 -92 -143 38 -236 189 -205 330 7 31 13 61 14 67 2 13
-271 264 -288 264 -6 0 -24 -14 -40 -30 -68 -71 -466 -360 -495 -360 -13 0
-12 19 5 180 8 74 15 142 15 151 0 8 30 37 68 65 370 270 546 531 644 953 l23
101 833 0 c658 0 833 -3 836 -12z m-2702 -857 l65 -139 -101 -31 c-55 -17
-130 -36 -166 -43 -94 -17 -358 -14 -454 5 -100 21 -243 65 -251 77 -3 5 26
68 66 140 l71 130 352 0 352 0 66 -139z m-893 12 c-34 -65 -63 -120 -65 -122
-2 -2 -38 16 -81 39 -86 46 -207 129 -200 137 5 4 348 59 390 62 15 1 7 -21
-44 -116z m571 -1083 c0 -407 -2 -740 -4 -740 -2 0 -20 7 -39 15 -46 19 -83
19 -137 0 l-43 -15 7 732 c4 402 9 735 12 740 3 4 50 8 105 8 l99 0 0 -740z
m-1064 -786 c1 -9 0 -13 -4 -10 -3 4 -7 14 -8 22 -1 9 0 13 4 10 3 -4 7 -14 8
-22z m2560 0 c1 -9 0 -13 -4 -10 -3 4 -7 14 -8 22 -1 9 0 13 4 10 3 -4 7 -14
8 -22z m-3252 -2 c3 -5 -1 -9 -9 -9 -8 0 -12 4 -9 9 3 4 7 8 9 8 2 0 6 -4 9
-8z m1406 2 c0 -8 -19 -13 -24 -6 -3 5 1 9 9 9 8 0 15 -2 15 -3z m1154 -2 c3
-5 -1 -9 -9 -9 -8 0 -12 4 -9 9 3 4 7 8 9 8 2 0 6 -4 9 -8z m-2177 -34 c-3 -8
-6 -5 -6 6 -1 11 2 17 5 13 3 -3 4 -12 1 -19z m76 -4 c-4 -12 -8 -13 -14 -3
-9 15 -2 32 11 24 5 -3 6 -13 3 -21z m384 7 c-1 -15 -4 -17 -14 -10 -7 6 -18
7 -24 3 -8 -5 -9 -3 -5 5 5 7 14 10 22 7 8 -3 14 -1 14 4 0 6 2 10 4 10 3 0 4
-9 3 -19z m1527 3 c3 -8 2 -12 -4 -9 -6 3 -10 10 -10 16 0 14 7 11 14 -7z
m573 -6 c-3 -8 -6 -5 -6 6 -1 11 2 17 5 13 3 -3 4 -12 1 -19z m76 -4 c-4 -12
-8 -13 -14 -3 -9 15 -2 32 11 24 5 -3 6 -13 3 -21z m-2701 -36 c-6 -6 -7 0 -4
19 5 21 7 23 10 9 2 -10 0 -22 -6 -28z m1043 32 c-3 -5 -12 -10 -18 -10 -7 0
-6 4 3 10 19 12 23 12 15 0z m1517 -32 c-6 -6 -7 0 -4 19 5 21 7 23 10 9 2
-10 0 -22 -6 -28z m-2471 9 c-10 -9 -11 -8 -5 6 3 10 9 15 12 12 3 -3 0 -11
-7 -18z m219 19 c0 -2 -8 -10 -17 -17 -16 -13 -17 -12 -4 4 13 16 21 21 21 13z
m90 0 c0 -2 -8 -10 -17 -17 -16 -13 -17 -12 -4 4 13 16 21 21 21 13z m185 -5
c3 -5 2 -12 -3 -15 -5 -3 -9 1 -9 9 0 17 3 19 12 6z m1550 -9 c-3 -3 -11 0
-18 7 -9 10 -8 11 6 5 10 -3 15 -9 12 -12z m516 -5 c-10 -9 -11 -8 -5 6 3 10
9 15 12 12 3 -3 0 -11 -7 -18z m219 19 c0 -2 -8 -10 -17 -17 -16 -13 -17 -12
-4 4 13 16 21 21 21 13z m-2933 -26 c-2 -11 -7 -23 -12 -27 -4 -5 -5 -2 -1 5
4 6 2 12 -4 12 -7 0 -6 5 2 15 17 19 18 19 15 -5z m560 -2 c-3 -8 -6 -5 -6 6
-1 11 2 17 5 13 3 -3 4 -12 1 -19z m1546 4 c15 -16 15 -18 -3 -19 -13 -1 -18
4 -17 18 2 23 0 23 20 1z m167 14 c0 -2 -8 -10 -17 -17 -16 -13 -17 -12 -4 4
13 16 21 21 21 13z m50 -20 c0 -2 -9 -2 -20 1 -11 3 -20 9 -20 15 0 5 9 4 20
-2 11 -6 20 -12 20 -14z m237 4 c-2 -11 -7 -23 -12 -27 -4 -5 -5 -2 -1 5 4 6
2 12 -4 12 -7 0 -6 5 2 15 17 19 18 19 15 -5z m-2157 -7 c0 -10 -4 -14 -8 -8
-4 6 -11 13 -16 18 -5 4 -2 7 7 7 10 0 17 -8 17 -17z m97 -5 c2 -16 0 -19 -6
-10 -6 10 -13 7 -30 -15 -14 -19 -19 -21 -14 -8 4 11 16 28 28 37 11 10 20 17
20 18 1 0 2 -10 2 -22z m183 18 c0 -3 -4 -8 -10 -11 -5 -3 -10 -1 -10 4 0 6 5
11 10 11 6 0 10 -2 10 -4z m158 -31 c-3 -3 -9 2 -12 12 -6 14 -5 15 5 6 7 -7
10 -15 7 -18z m1375 8 c-3 -7 -6 -13 -8 -13 -2 0 -5 6 -8 13 -3 8 1 14 8 14 7
0 11 -6 8 -14z m-1356 -15 c-3 -8 -6 -5 -6 6 -1 11 2 17 5 13 3 -3 4 -12 1
-19z m1553 18 c0 -3 -4 -8 -10 -11 -5 -3 -10 -1 -10 4 0 6 5 11 10 11 6 0 10
-2 10 -4z m-2470 -16 c0 -5 -2 -10 -4 -10 -3 0 -8 5 -11 10 -3 6 -1 10 4 10 6
0 11 -4 11 -10z m181 -21 c-5 -13 -10 -19 -10 -12 -1 15 10 45 15 40 3 -2 0
-15 -5 -28z m76 19 c3 6 10 12 16 12 5 0 7 -3 4 -7 -4 -3 -2 -12 3 -18 8 -10
0 -10 -35 -2 -28 7 -41 13 -33 18 7 4 19 2 27 -4 11 -9 15 -9 18 1z m223 2 c0
-5 -5 -10 -11 -10 -5 0 -7 5 -4 10 3 6 8 10 11 10 2 0 4 -4 4 -10z m399 -33
c13 -4 13 -5 1 -6 -8 0 -26 9 -40 20 -14 11 -19 18 -12 14 6 -3 12 0 13 7 0 7
5 3 11 -9 6 -12 18 -24 27 -26z m1196 33 c-3 -5 2 -10 11 -10 10 0 15 -3 11
-6 -10 -10 -39 5 -32 16 3 5 8 10 11 10 3 0 2 -4 -1 -10z m457 -45 c-4 -5 -8
-2 -10 8 -2 9 -8 15 -13 12 -11 -7 -11 -3 -2 20 5 15 8 14 19 -6 7 -13 9 -28
6 -34z m28 45 c0 -5 -2 -10 -4 -10 -3 0 -8 5 -11 10 -3 6 -1 10 4 10 6 0 11
-4 11 -10z m181 -21 c-5 -13 -10 -19 -10 -12 -1 15 10 45 15 40 3 -2 0 -15 -5
-28z m76 19 c3 6 10 12 16 12 5 0 7 -3 4 -7 -4 -3 -2 -12 3 -18 8 -10 0 -10
-35 -2 -28 7 -41 13 -33 18 7 4 19 2 27 -4 11 -9 15 -9 18 1z m-2178 -19 c-22
-13 -31 -11 -17 5 7 8 17 12 22 9 4 -3 2 -9 -5 -14z m161 6 c-14 -17 -36 -20
-45 -6 -3 6 3 8 15 6 11 -2 22 0 25 6 4 5 9 9 12 9 3 0 0 -7 -7 -15z m306 3
c4 -6 3 -8 -4 -4 -6 3 -14 0 -19 -8 -7 -12 -10 -12 -23 2 -13 14 -12 15 3 9 9
-3 17 -2 17 3 0 14 17 12 26 -2z m1081 -20 c-3 -8 -6 -5 -6 6 -1 11 2 17 5 13
3 -3 4 -12 1 -19z m-1958 -24 c-15 -18 -23 -18 -15 1 3 8 1 15 -4 15 -6 0 -10
5 -10 10 0 7 7 7 21 0 16 -9 18 -14 8 -26z m516 26 c3 -6 -1 -7 -9 -4 -18 7
-21 14 -7 14 6 0 13 -4 16 -10z m176 0 c0 8 5 2 9 -14 10 -33 7 -42 -19 -55
-14 -8 -17 -6 -16 11 1 12 8 24 16 26 11 3 11 1 -1 -7 -9 -7 -10 -11 -3 -11
19 0 26 20 9 26 -9 3 -16 14 -16 23 0 14 2 14 10 1 9 -13 10 -13 11 0z m1113
-22 c-4 -5 -11 -5 -18 1 -9 7 -16 7 -24 -1 -7 -7 -12 -8 -12 -4 0 18 34 35 47
24 7 -6 10 -14 7 -20z m107 9 c-10 -9 -11 -8 -5 6 3 10 9 15 12 12 3 -3 0 -11
-7 -18z m648 -13 c-15 -18 -23 -18 -15 1 3 8 1 15 -4 15 -6 0 -10 5 -10 10 0
7 7 7 21 0 16 -9 18 -14 8 -26z m-2149 -4 c-8 -5 -19 -10 -25 -10 -5 0 -3 5 5
10 8 5 20 10 25 10 6 0 3 -5 -5 -10z m-230 -19 c0 -5 -7 -12 -16 -15 -14 -5
-15 -4 -4 9 14 17 20 19 20 6z m1623 -26 c-4 -14 -33 -14 -33 0 0 7 8 12 18
11 9 -2 16 -7 15 -11z"/>
<path d="M7972 5029 c-126 -24 -259 -133 -301 -244 -27 -71 -40 -152 -33 -211
l5 -43 403 0 c221 1 407 -2 413 -5 16 -10 25 100 12 161 -47 236 -268 388
-499 342z"/>
<path d="M717 4979 c-188 -44 -328 -222 -326 -414 1 -88 -11 -84 205 -83 105
1 196 -2 202 -6 6 -3 13 -2 16 2 3 5 98 8 211 7 l205 -2 0 79 c0 130 -47 237
-139 321 -96 87 -248 126 -374 96z"/>
<path d="M4307 1539 c-126 -30 -245 -129 -291 -245 -29 -69 -44 -180 -33 -226
l6 -24 413 0 413 1 0 96 c0 90 -2 99 -38 171 -40 81 -107 152 -179 189 -85 43
-203 59 -291 38z"/>
<path d="M3310 1514 c0 -8 5 -12 10 -9 6 4 8 11 5 16 -9 14 -15 11 -15 -7z"/>
<path d="M5867 1508 c-3 -12 -2 -29 4 -37 8 -14 9 -13 7 4 -1 11 1 25 5 32 4
6 3 14 -2 17 -5 3 -11 -4 -14 -16z"/>
<path d="M6463 1484 c-7 -7 -13 -19 -13 -27 0 -10 -8 -13 -24 -10 -27 6 -37
-12 -25 -44 9 -24 24 -30 34 -13 4 6 10 8 15 5 4 -3 13 9 19 25 6 18 6 28 1
25 -6 -4 -10 1 -10 9 0 10 7 13 21 11 18 -4 19 -2 8 13 -7 9 -13 18 -14 18 0
1 -6 -4 -12 -12z m-6 -58 c-2 -5 -12 -15 -23 -23 -19 -12 -20 -11 -18 9 1 13
3 24 3 25 3 7 41 -3 38 -11z"/>
<path d="M5346 1468 c6 -9 44 -6 44 3 0 4 -11 6 -24 5 -13 0 -22 -4 -20 -8z"/>
<path d="M5596 1452 c-3 -6 -1 -14 5 -17 14 -9 20 -2 10 14 -6 8 -11 9 -15 3z"/>
<path d="M1150 1429 c0 -3 11 -9 25 -11 13 -3 22 -2 20 3 -3 4 1 9 7 11 7 3
-2 5 -19 5 -18 0 -33 -4 -33 -8z"/>
<path d="M5389 1439 c-7 -44 -6 -58 7 -63 11 -4 13 1 9 26 -5 29 -14 49 -16
37z"/>
<path d="M1598 1399 c2 -16 9 -29 14 -29 5 0 6 5 3 10 -4 6 -2 17 4 24 9 10 7
15 -7 18 -15 4 -17 0 -14 -23z"/>
<path d="M1833 1422 c-8 -5 -9 -13 -3 -22 14 -21 12 -43 -2 -34 -7 4 -8 3 -4
-5 9 -14 26 -5 26 15 0 9 5 13 13 9 6 -4 4 0 -7 9 -10 8 -15 19 -11 25 7 13 4
14 -12 3z"/>
<path d="M3206 1415 c-15 -8 -30 -15 -34 -17 -4 -2 -6 -9 -4 -15 2 -7 -3 -13
-9 -13 -7 0 -10 -3 -6 -6 7 -8 58 31 52 40 -3 3 -2 4 2 1 3 -3 12 0 19 6 8 7
14 7 19 -1 3 -5 -1 -10 -9 -10 -9 0 -16 -7 -16 -15 0 -9 -6 -12 -15 -9 -8 4
-15 1 -15 -4 0 -16 18 -24 25 -12 4 6 10 8 15 5 10 -6 23 12 27 37 4 23 -20
29 -51 13z"/>
<path d="M5216 1415 c-3 -8 0 -15 7 -15 8 0 7 -3 -2 -9 -10 -6 -1 -8 26 -4 25
3 43 1 47 -6 5 -8 -2 -10 -23 -6 -32 6 -37 0 -21 -25 8 -12 10 -12 10 -1 0 8
3 11 6 8 4 -3 15 -2 25 3 12 7 20 7 24 0 4 -6 11 -7 17 -4 6 4 14 0 19 -7 6
-10 9 -11 9 -1 0 6 7 12 16 12 9 0 12 -5 8 -12 -5 -7 -3 -8 5 -3 10 5 7 13 -9
29 -16 15 -24 17 -27 8 -3 -6 -9 -10 -14 -6 -5 3 -9 -1 -10 -8 0 -7 -4 -3 -9
10 -5 12 -18 22 -28 22 -10 0 -23 5 -30 12 -9 9 -12 9 -12 0 0 -7 -4 -12 -10
-12 -5 0 -7 7 -4 15 4 8 2 15 -4 15 -5 0 -12 -7 -16 -15z"/>
<path d="M6718 1399 c2 -16 9 -29 14 -29 5 0 6 5 3 10 -4 6 -2 17 4 24 9 10 7
15 -7 18 -15 4 -17 0 -14 -23z"/>
<path d="M6953 1422 c-8 -5 -9 -13 -3 -22 14 -21 12 -43 -2 -34 -7 4 -8 3 -4
-5 9 -14 26 -5 26 15 0 9 5 13 13 9 6 -4 4 0 -7 9 -10 8 -15 19 -11 25 7 13 4
14 -12 3z"/>
<path d="M2086 1406 c10 -8 21 -12 24 -10 5 6 -21 24 -34 24 -6 0 -1 -6 10
-14z"/>
<path d="M2135 1399 c-16 -10 -40 -18 -52 -18 -13 -1 -23 -5 -23 -10 0 -6 12
-6 31 -1 24 7 34 5 50 -11 11 -11 17 -25 12 -32 -4 -7 0 -7 10 2 12 9 17 10
17 2 0 -7 5 -9 11 -5 8 4 7 9 -2 15 -7 4 -16 6 -20 3 -4 -2 -9 3 -13 11 -3 9
0 15 9 15 12 0 42 38 33 41 -23 6 -38 3 -63 -12z m44 -12 c0 -8 -2 -8 -6 1 -4
10 -8 9 -17 -4 -10 -13 -15 -14 -21 -4 -5 8 -4 11 2 7 6 -4 14 0 17 9 6 17 26
10 25 -9z"/>
<path d="M5469 1398 c-11 -20 -10 -21 3 -11 8 7 18 10 21 6 4 -3 7 -1 7 5 0
22 -19 22 -31 0z"/>
<path d="M6344 1405 c-18 -13 -18 -14 5 -8 19 5 22 3 16 -8 -5 -8 -5 -11 0 -7
4 4 15 2 24 -4 10 -8 8 -3 -4 12 -11 14 -20 26 -21 27 0 2 -9 -4 -20 -12z"/>
<path d="M7206 1406 c10 -8 21 -12 24 -10 5 6 -21 24 -34 24 -6 0 -1 -6 10
-14z"/>
<path d="M7255 1399 c-16 -10 -40 -18 -52 -18 -13 -1 -23 -5 -23 -10 0 -6 12
-6 31 -1 24 7 34 5 50 -11 11 -11 17 -25 12 -32 -4 -7 0 -7 10 2 12 9 17 10
17 2 0 -7 5 -9 11 -5 8 4 7 9 -2 15 -7 4 -16 6 -20 3 -4 -2 -9 3 -13 11 -3 9
0 15 9 15 12 0 42 38 33 41 -23 6 -38 3 -63 -12z m44 -12 c0 -8 -2 -8 -6 1 -4
10 -8 9 -17 -4 -10 -13 -15 -14 -21 -4 -5 8 -4 11 2 7 6 -4 14 0 17 9 6 17 26
10 25 -9z"/>
<path d="M1170 1402 c0 -5 11 -18 24 -29 20 -18 25 -19 30 -7 3 8 1 12 -4 9
-5 -3 -18 3 -30 15 -11 11 -20 16 -20 12z"/>
<path d="M3721 1394 c12 -16 12 -17 -4 -11 -11 4 -16 3 -12 -4 4 -5 16 -7 27
-3 17 5 19 3 13 -15 -4 -12 -2 -21 4 -21 6 0 11 8 11 18 0 13 2 14 9 4 7 -11
9 -10 14 3 4 9 3 13 -3 10 -5 -3 -18 2 -28 12 -26 25 -50 30 -31 7z"/>
<path d="M1780 1390 c0 -5 5 -10 11 -10 5 0 7 5 4 10 -3 6 -8 10 -11 10 -2 0
-4 -4 -4 -10z"/>
<path d="M3575 1379 c-4 -11 -4 -23 -1 -26 3 -4 6 -1 6 5 0 7 7 12 15 12 8 0
15 7 15 15 0 23 -28 18 -35 -6z"/>
<path d="M5110 1380 c-8 -16 -8 -20 2 -18 7 2 12 -3 11 -9 -2 -7 2 -13 7 -13
6 0 10 7 10 16 0 8 5 12 10 9 6 -4 8 -11 5 -16 -3 -5 1 -6 9 -3 24 9 7 33 -20
28 -18 -3 -22 -1 -18 11 9 22 -4 18 -16 -5z"/>
<path d="M6900 1390 c0 -5 5 -10 11 -10 5 0 7 5 4 10 -3 6 -8 10 -11 10 -2 0
-4 -4 -4 -10z"/>
<path d="M1306 1361 c-11 -12 -16 -24 -13 -28 4 -3 7 -1 7 6 0 7 13 11 35 9
19 -1 38 2 42 7 4 4 0 5 -9 2 -10 -4 -18 -2 -18 4 0 6 -4 8 -9 5 -5 -4 -11 -1
-13 5 -2 6 -12 1 -22 -10z"/>
<path d="M1706 1354 c-4 -14 -5 -29 -2 -31 3 -3 8 7 12 21 3 15 4 29 1 32 -2
3 -8 -7 -11 -22z"/>
<path d="M2196 1371 c-3 -5 1 -11 9 -15 9 -3 15 0 15 9 0 16 -16 20 -24 6z"/>
<path d="M2350 1369 c0 -5 5 -7 10 -4 6 3 10 8 10 11 0 2 -4 4 -10 4 -5 0 -10
-5 -10 -11z"/>
<path d="M3866 1361 c-11 -12 -16 -24 -13 -28 4 -3 7 -1 7 6 0 7 13 11 35 9
19 -1 38 2 42 7 4 4 0 5 -9 2 -10 -4 -18 -2 -18 4 0 6 -4 8 -9 5 -5 -4 -11 -1
-13 5 -2 6 -12 1 -22 -10z"/>
<path d="M4910 1369 c0 -5 5 -7 10 -4 6 3 10 8 10 11 0 2 -4 4 -10 4 -5 0 -10
-5 -10 -11z"/>
<path d="M6306 1363 c-8 -20 -8 -23 4 -23 6 0 10 8 10 18 0 13 2 14 9 4 7 -11
9 -11 14 0 3 8 -2 14 -13 15 -10 1 -21 -5 -24 -14z"/>
<path d="M6426 1361 c-11 -12 -16 -24 -13 -28 4 -3 7 -1 7 6 0 7 13 11 35 9
19 -1 38 2 42 7 4 4 0 5 -9 2 -10 -4 -18 -2 -18 4 0 6 -4 8 -9 5 -5 -4 -11 -1
-13 5 -2 6 -12 1 -22 -10z"/>
<path d="M6826 1354 c-4 -14 -5 -29 -2 -31 3 -3 8 7 12 21 3 15 4 29 1 32 -2
3 -8 -7 -11 -22z"/>
<path d="M7316 1371 c-3 -5 1 -11 9 -15 9 -3 15 0 15 9 0 16 -16 20 -24 6z"/>
<path d="M7470 1369 c0 -5 5 -7 10 -4 6 3 10 8 10 11 0 2 -4 4 -10 4 -5 0 -10
-5 -10 -11z"/>
<path d="M1775 1361 c-3 -5 -2 -12 3 -15 5 -3 9 1 9 9 0 17 -3 19 -12 6z"/>
<path d="M2485 1359 c-11 -17 1 -21 15 -4 8 9 8 15 2 15 -6 0 -14 -5 -17 -11z"/>
<path d="M6895 1361 c-3 -5 -2 -12 3 -15 5 -3 9 1 9 9 0 17 -3 19 -12 6z"/>
<path d="M1240 1345 c0 -5 5 -17 11 -25 8 -12 9 -11 7 5 -2 12 2 19 10 18 6
-2 12 1 12 6 0 6 -9 9 -20 8 -11 -1 -20 -6 -20 -12z"/>
<path d="M1666 1347 c3 -10 9 -15 12 -12 3 3 0 11 -7 18 -10 9 -11 8 -5 -6z"/>
<path d="M2080 1350 c-9 -6 -10 -10 -3 -10 6 0 15 5 18 10 8 12 4 12 -15 0z"/>
<path d="M2396 1345 c-7 -20 9 -28 23 -11 9 10 8 15 -3 19 -8 3 -17 -1 -20 -8z"/>
<path d="M3420 1350 c-9 -6 -10 -10 -3 -10 6 0 15 5 18 10 8 12 4 12 -15 0z"/>
<path d="M3536 1344 c-4 -9 -4 -19 -1 -22 3 -3 5 0 5 7 0 7 4 9 10 6 6 -3 7 1
4 9 -8 20 -10 20 -18 0z"/>
<path d="M3800 1345 c0 -5 5 -17 11 -25 8 -12 9 -11 7 5 -2 12 2 19 10 18 6
-2 12 1 12 6 0 6 -9 9 -20 8 -11 -1 -20 -6 -20 -12z"/>
<path d="M4956 1345 c-7 -20 9 -28 23 -11 9 10 8 15 -3 19 -8 3 -17 -1 -20 -8z"/>
<path d="M5212 1355 c4 -4 0 -14 -10 -21 -15 -12 -15 -12 6 -7 24 6 29 18 10
29 -7 4 -10 4 -6 -1z"/>
<path d="M6360 1345 c0 -5 5 -17 11 -25 8 -12 9 -11 7 5 -2 12 2 19 10 18 6
-2 12 1 12 6 0 6 -9 9 -20 8 -11 -1 -20 -6 -20 -12z"/>
<path d="M6786 1347 c3 -10 9 -15 12 -12 3 3 0 11 -7 18 -10 9 -11 8 -5 -6z"/>
<path d="M7200 1350 c-9 -6 -10 -10 -3 -10 6 0 15 5 18 10 8 12 4 12 -15 0z"/>
<path d="M1800 1335 c0 -8 2 -15 4 -15 2 0 6 7 10 15 3 8 1 15 -4 15 -6 0 -10
-7 -10 -15z"/>
<path d="M2525 1340 c-4 -6 -11 -7 -17 -4 -6 4 -8 2 -4 -4 9 -15 43 -11 43 5
0 15 -13 17 -22 3z"/>
<path d="M3633 1337 c0 -7 11 -14 23 -15 17 -1 22 2 17 14 -5 13 -7 13 -14 2
-7 -10 -9 -10 -9 0 0 6 -4 12 -8 12 -5 0 -9 -6 -9 -13z"/>
<path d="M3690 1333 c13 -27 30 -30 29 -5 0 11 -2 12 -6 4 -4 -10 -9 -9 -20 5
-13 17 -13 16 -3 -4z"/>
<path d="M5085 1340 c-4 -6 -11 -7 -17 -4 -6 4 -8 2 -4 -4 9 -15 43 -11 43 5
0 15 -13 17 -22 3z"/>
<path d="M5310 1336 c14 -18 13 -19 -5 -14 -16 4 -21 0 -22 -16 -1 -12 1 -15
4 -8 3 6 11 12 18 12 22 0 26 17 7 31 -16 13 -16 13 -2 -5z"/>
<path d="M6920 1335 c0 -8 2 -15 4 -15 2 0 6 7 10 15 3 8 1 15 -4 15 -6 0 -10
-7 -10 -15z"/>
<path d="M2114 1323 c2 -9 8 -19 15 -21 10 -3 10 0 2 17 -14 25 -20 27 -17 4z"/>
<path d="M6254 1328 c4 -20 26 -21 26 -1 0 14 -2 15 -9 4 -6 -9 -10 -10 -14
-2 -4 8 -5 8 -3 -1z"/>
<path d="M7234 1323 c2 -9 8 -19 15 -21 10 -3 10 0 2 17 -14 25 -20 27 -17 4z"/>
<path d="M1271 1314 c0 -11 3 -14 6 -6 3 7 2 16 -1 19 -3 4 -6 -2 -5 -13z"/>
<path d="M1474 1318 c-4 -7 -3 -8 4 -4 10 6 16 -10 14 -35 -1 -3 5 -6 13 -6
12 0 11 5 -1 29 -16 31 -20 33 -30 16z"/>
<path d="M1651 1314 c0 -11 3 -14 6 -6 3 7 2 16 -1 19 -3 4 -6 -2 -5 -13z"/>
<path d="M1725 1321 c-3 -5 -1 -12 5 -16 5 -3 10 1 10 9 0 18 -6 21 -15 7z"/>
<path d="M3360 1320 c-23 -7 -23 -8 -3 -9 12 -1 25 4 28 9 3 6 5 10 3 9 -2 -1
-14 -5 -28 -9z"/>
<path d="M3831 1314 c0 -11 3 -14 6 -6 3 7 2 16 -1 19 -3 4 -6 -2 -5 -13z"/>
<path d="M6218 1323 c7 -3 16 -2 19 1 4 3 -2 6 -13 5 -11 0 -14 -3 -6 -6z"/>
<path d="M6391 1314 c0 -11 3 -14 6 -6 3 7 2 16 -1 19 -3 4 -6 -2 -5 -13z"/>
<path d="M6594 1318 c-4 -7 -3 -8 4 -4 10 6 16 -10 14 -35 -1 -3 5 -6 13 -6
12 0 11 5 -1 29 -16 31 -20 33 -30 16z"/>
<path d="M6771 1314 c0 -11 3 -14 6 -6 3 7 2 16 -1 19 -3 4 -6 -2 -5 -13z"/>
<path d="M6845 1321 c-3 -5 -1 -12 5 -16 5 -3 10 1 10 9 0 18 -6 21 -15 7z"/>
<path d="M1355 1310 c-3 -5 -1 -10 4 -10 6 0 11 5 11 10 0 6 -2 10 -4 10 -3 0
-8 -4 -11 -10z"/>
<path d="M1380 1309 c0 -5 5 -7 10 -4 6 3 10 8 10 11 0 2 -4 4 -10 4 -5 0 -10
-5 -10 -11z"/>
<path d="M2225 1310 c3 -5 8 -10 11 -10 2 0 4 5 4 10 0 6 -5 10 -11 10 -5 0
-7 -4 -4 -10z"/>
<path d="M2321 1304 c0 -11 3 -14 6 -6 3 7 2 16 -1 19 -3 4 -6 -2 -5 -13z"/>
<path d="M2577 1309 c7 -7 15 -10 18 -7 3 3 -2 9 -12 12 -14 6 -15 5 -6 -5z"/>
<path d="M3460 1308 c-12 -8 -12 -9 2 -4 10 3 18 -1 21 -12 4 -16 5 -16 6 0 1
22 -11 29 -29 16z"/>
<path d="M3915 1310 c-3 -5 -1 -10 4 -10 6 0 11 5 11 10 0 6 -2 10 -4 10 -3 0
-8 -4 -11 -10z"/>
<path d="M3940 1309 c0 -5 5 -7 10 -4 6 3 10 8 10 11 0 2 -4 4 -10 4 -5 0 -10
-5 -10 -11z"/>
<path d="M4881 1304 c0 -11 3 -14 6 -6 3 7 2 16 -1 19 -3 4 -6 -2 -5 -13z"/>
<path d="M5137 1309 c7 -7 15 -10 18 -7 3 3 -2 9 -12 12 -14 6 -15 5 -6 -5z"/>
<path d="M6475 1310 c-3 -5 -1 -10 4 -10 6 0 11 5 11 10 0 6 -2 10 -4 10 -3 0
-8 -4 -11 -10z"/>
<path d="M6500 1309 c0 -5 5 -7 10 -4 6 3 10 8 10 11 0 2 -4 4 -10 4 -5 0 -10
-5 -10 -11z"/>
<path d="M7345 1310 c3 -5 8 -10 11 -10 2 0 4 5 4 10 0 6 -5 10 -11 10 -5 0
-7 -4 -4 -10z"/>
<path d="M7441 1304 c0 -11 3 -14 6 -6 3 7 2 16 -1 19 -3 4 -6 -2 -5 -13z"/>
<path d="M3792 1296 c7 -8 15 -12 17 -11 5 6 -10 25 -20 25 -5 0 -4 -6 3 -14z"/>
<path d="M5428 1303 c7 -3 16 -2 19 1 4 3 -2 6 -13 5 -11 0 -14 -3 -6 -6z"/>
<path d="M6352 1296 c7 -8 15 -12 17 -11 5 6 -10 25 -20 25 -5 0 -4 -6 3 -14z"/>
<path d="M1325 1291 c-3 -5 -2 -12 3 -15 5 -3 9 1 9 9 0 17 -3 19 -12 6z"/>
<path d="M2034 1287 c-4 -7 -4 -9 1 -5 4 4 14 3 22 -3 8 -7 13 -8 13 -1 0 15
-28 23 -36 9z"/>
<path d="M2206 1285 c-3 -9 0 -15 9 -15 16 0 20 16 6 24 -5 3 -11 -1 -15 -9z"/>
<path d="M3885 1291 c-3 -5 -2 -12 3 -15 5 -3 9 1 9 9 0 17 -3 19 -12 6z"/>
<path d="M6445 1291 c-3 -5 -2 -12 3 -15 5 -3 9 1 9 9 0 17 -3 19 -12 6z"/>
<path d="M7154 1287 c-4 -7 -4 -9 1 -5 4 4 14 3 22 -3 8 -7 13 -8 13 -1 0 15
-28 23 -36 9z"/>
<path d="M7326 1285 c-3 -9 0 -15 9 -15 16 0 20 16 6 24 -5 3 -11 -1 -15 -9z"/>
<path d="M2408 1283 c7 -3 16 -2 19 1 4 3 -2 6 -13 5 -11 0 -14 -3 -6 -6z"/>
<path d="M4968 1283 c7 -3 16 -2 19 1 4 3 -2 6 -13 5 -11 0 -14 -3 -6 -6z"/>
<path d="M2595 1270 c-3 -6 1 -7 9 -4 18 7 21 14 7 14 -6 0 -13 -4 -16 -10z"/>
<path d="M5155 1270 c-3 -6 1 -7 9 -4 18 7 21 14 7 14 -6 0 -13 -4 -16 -10z"/>
<path d="M5263 1255 c0 -8 4 -12 9 -9 5 3 6 10 3 15 -9 13 -12 11 -12 -6z"/>
</g>
</svg>
