<svg width="61" height="44" viewBox="0 0 61 44" fill="none" xmlns="http://www.w3.org/2000/svg">
<path d="M27.0386 29.0665C23.5525 27.5782 21.5254 24.2635 21.8128 20.5616C22.0865 17.0362 24.7829 13.9946 28.2256 13.1684C32.7662 12.0788 37.3217 15.0172 38.3216 19.458C39.3934 24.2185 36.0915 28.9865 31.2401 29.609C29.7972 29.7942 28.4183 29.6029 27.0386 29.0665Z" fill="#A8B4C0"/>
<path d="M56.6991 23.0834C56.8369 19.687 56.4409 16.4114 55.3607 13.2256C54.0504 9.36115 51.9202 6.01248 49.0556 3.1202C48.5271 2.5866 48.3505 1.9512 48.567 1.23866C48.7747 0.554971 49.2664 0.149459 49.9704 0.0344655C50.6126 -0.070437 51.1564 0.156561 51.6101 0.607561C53.2931 2.28032 54.7478 4.13364 55.9845 6.15798C57.8808 9.26201 59.1703 12.602 59.8205 16.18C60.2996 18.8161 60.4436 21.4669 60.2131 24.1482C59.865 28.196 58.7485 32.0049 56.8582 35.5903C55.5049 38.1573 53.7882 40.4641 51.7493 42.5269C50.9314 43.3544 49.8816 43.3964 49.1356 42.6765C48.4206 41.9865 48.3795 40.9029 49.0765 40.1272C49.6969 39.4369 50.3399 38.768 50.9251 38.0455C53.7081 34.6095 55.4866 30.7124 56.3101 26.3733C56.5136 25.3007 56.5994 24.2145 56.6991 23.0834Z" fill="#A8B4C0"/>
<path d="M1.25508 30.18C0.586201 27.9857 0.231438 25.7815 0.0723658 23.5308C-0.204719 19.6105 0.318391 15.8018 1.56446 12.0926C3.03557 7.71358 5.43033 3.89237 8.68365 0.612565C9.23051 0.0612457 9.88773 -0.146154 10.6489 0.106785C11.3363 0.335179 11.7131 0.838157 11.8303 1.53173C11.9361 2.15779 11.701 2.68875 11.2648 3.12473C8.82859 5.55972 6.92057 8.34931 5.59126 11.5308C4.49016 14.1661 3.85149 16.9047 3.65094 19.7575C3.38432 23.5502 3.89697 27.2228 5.21894 30.783C6.47782 34.1732 8.37459 37.1653 10.8918 39.7602C11.3599 40.2426 11.7618 40.7438 11.7282 41.4549C11.6946 42.1677 11.3291 42.6838 10.6927 42.9925C10.0035 43.3268 9.33766 43.2218 8.78504 42.7229C7.84023 41.8699 7.03724 40.8826 6.2563 39.8797C3.9907 36.9701 2.32116 33.7523 1.25508 30.18Z" fill="#A8B4C0"/>
<path d="M48.1027 36.7714C47.6636 37.255 47.2657 37.7311 46.826 38.1648C46.0485 38.9318 44.9191 38.9344 44.2035 38.2005C43.5085 37.4877 43.5435 36.3744 44.2913 35.6088C47.3091 32.519 49.2318 28.8491 49.8226 24.5753C50.6757 18.404 49.0261 12.9374 44.8622 8.26411C44.613 7.98446 44.3511 7.71619 44.1005 7.4378C43.4453 6.70998 43.4538 5.63532 44.1168 4.95883C44.7966 4.26509 45.9131 4.2306 46.6294 4.93116C49.3342 7.57686 51.2673 10.709 52.4548 14.2996C53.3061 16.8734 53.7016 19.5218 53.6207 22.2281C53.4947 26.4477 52.3463 30.3736 50.1275 33.9777C49.5284 34.9507 48.8664 35.8759 48.1027 36.7714Z" fill="#A8B4C0"/>
<path d="M10.9286 16.5124C9.39226 23.0071 10.5939 28.8822 14.6794 34.1348C15.088 34.6602 15.5679 35.1307 16.0204 35.6214C16.7591 36.4223 16.7724 37.5937 16.0452 38.2518C15.2603 38.9622 14.1504 38.8707 13.3818 38.066C10.9983 35.5704 9.17692 32.7272 8.02869 29.4654C7.28419 27.3505 6.85348 25.1749 6.73258 22.9321C6.4887 18.4082 7.4845 14.174 9.65666 10.211C10.7043 8.29972 12.0136 6.57791 13.5568 5.04055C14.5681 4.03312 16.0883 4.301 16.5684 5.56206C16.81 6.19675 16.7352 6.81129 16.2788 7.34791C15.6886 8.04197 15.0302 8.67382 14.4709 9.39793C12.8271 11.5262 11.6383 13.8767 10.9286 16.5124Z" fill="#A8B4C0"/>
<path d="M21.2528 31.4524C21.4696 32.3415 21.1419 33.1476 20.4304 33.5424C19.7222 33.9354 18.8742 33.8332 18.2729 33.2211C15.7398 30.6428 14.1878 27.5704 13.6753 23.9835C13.0962 19.931 13.9407 16.1867 16.1118 12.7298C16.7386 11.7317 17.4868 10.8282 18.3161 9.99622C19.1008 9.20905 20.2125 9.19196 20.9363 9.9167C21.6655 10.6468 21.6392 11.734 20.8438 12.5389C18.8306 14.5762 17.5727 17.0078 17.204 19.8398C16.6773 23.885 17.8237 27.4395 20.5776 30.4619C20.8416 30.7517 21.1218 31.0261 21.2528 31.4524Z" fill="#A8B4C0"/>
<path d="M42.1564 16.4688C41.5016 14.9898 40.6295 13.7029 39.5116 12.5843C39.1807 12.2532 38.9378 11.8803 38.8998 11.3972C38.8331 10.5482 39.1478 9.94062 39.8679 9.59073C40.5924 9.23873 41.2826 9.34567 41.8608 9.88069C42.6631 10.6232 43.3847 11.4479 43.9716 12.3728C47.4859 17.9118 47.7895 23.6222 44.8219 29.4795C44.0891 30.926 43.118 32.2169 41.9244 33.3223C41.1987 33.9944 40.1479 33.9288 39.469 33.2148C38.803 32.5143 38.7983 31.4537 39.5095 30.7004C40.57 29.577 41.4672 28.3485 42.088 26.9294C43.6026 23.4666 43.6253 19.9901 42.1564 16.4688Z" fill="#A8B4C0"/>
</svg>
